<?xml version="1.0" encoding="utf-8"?>
<!-- Generator: Adobe Illustrator 16.0.0, SVG Export Plug-In . SVG Version: 6.00 Build 0)  -->
<!DOCTYPE svg PUBLIC "-//W3C//DTD SVG 1.1//EN" "http://www.w3.org/Graphics/SVG/1.1/DTD/svg11.dtd">
<svg version="1.1" id="Layer_1" xmlns="http://www.w3.org/2000/svg" xmlns:xlink="http://www.w3.org/1999/xlink" x="0px" y="0px"
	 width="800px" height="200px" viewBox="0 0 800 200" enable-background="new 0 0 800 200" xml:space="preserve">
<g>
	<rect x="20.142" y="28.428" fill="none" width="453.556" height="145.702"/>
</g>
<g enable-background="new    ">
	<path fill="#364A5E" d="M32.492,86.125c0-34.01,28.088-61.083,62.437-61.083c14.382,0,28.088,4.907,38.579,13.198
		c4.399,3.215,5.076,9.476,1.861,13.706c-3.215,4.061-9.476,4.907-13.706,1.523c-7.276-5.584-16.582-9.137-26.734-9.137
		c-12.183,0-22.843,4.568-30.457,12.352c-7.953,7.614-12.69,17.936-12.69,29.441c0,11.167,4.738,21.49,12.69,29.103
		c7.614,7.783,18.274,12.352,30.457,12.352c8.46,0,16.413-2.537,23.181-6.43V97.97H93.914c-5.246,0-9.645-4.399-9.645-9.645
		c0-5.415,4.399-9.476,9.645-9.476h33.333c0.169,0,0.169,0,0.169,0c0.169,0,0.169,0,0.169,0c5.415,0,9.814,4.061,9.814,9.476v37.395
		c0,1.185-0.338,1.86-0.507,2.876c-0.169,0.339-0.169,0.508-0.339,0.846v0.17c-0.507,1.523-1.522,2.877-3.215,4.061
		c-10.66,8.291-24.027,13.198-38.409,13.198C60.58,146.87,32.492,119.967,32.492,86.125z"/>
	<path fill="#364A5E" d="M235.873,118.951h-41.117l-8.291,21.996c-1.523,3.723-5.076,5.923-8.799,5.923
		c-1.185,0-2.2-0.169-3.215-0.508c-4.907-1.86-7.276-7.275-5.583-12.183l37.394-99.662c1.523-3.722,5.245-6.091,8.968-5.922
		c3.892-0.169,7.445,2.2,8.968,5.922l37.395,99.662c1.692,4.907-0.677,10.322-5.584,12.183c-0.846,0.339-2.03,0.508-3.215,0.508
		c-3.723,0-7.276-2.2-8.629-5.923L235.873,118.951z M228.936,100.339L215.23,63.96l-13.706,36.379H228.936z"/>
	<path fill="#364A5E" d="M284.771,137.564V37.733c0-5.076,4.061-9.306,9.306-9.306h0.169c0,0,0,0,0.338,0h54.822
		c4.907,0,9.306,4.23,9.306,9.306c0,5.246-4.399,9.476-9.306,9.476h-45.854v30.964h39.425c5.076,0,9.306,4.399,9.306,9.307
		c0,5.245-4.23,9.475-9.306,9.475h-39.425v40.61c0,5.076-4.23,9.306-9.476,9.306C288.832,146.87,284.771,142.641,284.771,137.564z"
		/>
	<path fill="#364A5E" d="M387.137,137.564V37.733c0-5.245,4.061-9.306,9.306-9.306h0.169c0,0,0,0,0.339,0h54.822
		c4.907,0,9.307,4.061,9.307,9.306c0,5.246-4.399,9.476-9.307,9.476h-45.854v30.964h39.425c5.076,0,9.307,4.399,9.307,9.307
		c0,5.245-4.23,9.475-9.307,9.475h-39.425v31.133h45.854c4.907,0,9.307,4.23,9.307,9.477c0,5.076-4.399,9.306-9.307,9.306h-54.822
		c-0.339,0-0.339-0.169-0.339-0.169l-0.169,0.169C391.198,146.87,387.137,142.641,387.137,137.564z"/>
</g>
<g>
	<rect x="467.822" y="60.153" fill="none" width="321.953" height="82.251"/>
</g>
<g enable-background="new    ">
	<path fill="#E57E25" d="M512.826,69.546h-13.451v45.173c0,2.623-2.031,4.653-4.652,4.653c-2.539,0-4.654-2.03-4.654-4.653V69.546
		h-13.365c-2.623,0-4.652-2.2-4.652-4.737c0-2.623,2.029-4.653,4.652-4.653h36.123c2.537,0,4.652,2.03,4.652,4.653
		C517.479,67.346,515.363,69.546,512.826,69.546z"/>
	<path fill="#E57E25" d="M536.346,66.5c0,2.538-1.945,4.653-4.566,4.653c-2.539,0-4.568-2.115-4.568-4.653v-1.777
		c0-2.538,2.029-4.568,4.568-4.568c2.621,0,4.566,2.03,4.566,4.568V66.5z M536.346,81.812v32.992c0,2.538-1.945,4.568-4.566,4.568
		c-2.539,0-4.568-2.03-4.568-4.568V81.812c0-2.707,2.029-4.653,4.568-4.653C534.4,77.159,536.346,79.105,536.346,81.812z"/>
	<path fill="#E57E25" d="M542.607,129.692c0-2.453,1.945-4.483,4.652-4.483V81.728c0-2.623,2.115-4.653,4.568-4.653
		c2.623,0,4.568,2.03,4.568,4.653v43.481c0,4.991-4.061,9.137-9.137,9.137C544.553,134.346,542.607,132.399,542.607,129.692z
		 M547.346,66.585v-1.692c0-2.707,2.115-4.653,4.652-4.653s4.568,1.946,4.568,4.653v1.692c0,2.453-2.031,4.653-4.568,4.653
		S547.346,69.038,547.346,66.585z"/>
	<path fill="#E57E25" d="M588.713,119.372c-9.645,0-17.596-7.952-17.596-17.596V81.558c0-2.369,2.029-4.483,4.482-4.483
		c2.539,0,4.484,2.115,4.484,4.483v20.218c0,4.821,3.807,8.629,8.629,8.629c4.906,0,8.797-3.808,8.883-8.629V81.558
		c0-2.369,1.859-4.483,4.398-4.483c2.369,0,4.568,2.115,4.568,4.483v20.218C606.563,111.42,598.441,119.372,588.713,119.372z"/>
	<path fill="#E57E25" d="M659.607,98.308v16.581c0,2.453-2.031,4.483-4.484,4.483c-2.199,0-3.891-1.607-4.398-3.638
		c-3.215,2.284-7.021,3.638-11.252,3.638c-5.752,0-10.744-2.368-14.381-6.175c-3.637-3.893-5.752-9.137-5.752-14.889
		c0-5.837,2.115-11.082,5.752-14.889c3.637-3.892,8.629-6.345,14.381-6.345c4.23,0,8.037,1.438,11.252,3.722
		c0.508-2.115,2.199-3.722,4.398-3.722c2.453,0,4.484,2.03,4.484,4.568V98.308z M650.639,98.308c0-3.553-1.268-6.599-3.299-8.713
		c-2.029-2.284-4.906-3.468-7.867-3.468c-3.045,0-5.922,1.184-7.867,3.468c-2.029,2.115-3.215,5.16-3.215,8.713
		c0,3.468,1.186,6.514,3.215,8.713c1.945,2.115,4.822,3.299,7.867,3.299c2.961,0,5.838-1.184,7.867-3.299
		C649.371,104.822,650.639,101.776,650.639,98.308z"/>
	<path fill="#E57E25" d="M710.621,94.67v20.218c0,2.453-1.947,4.483-4.4,4.483c-2.367,0-4.482-2.03-4.482-4.483V94.67
		c0-4.737-3.977-8.544-8.799-8.544c-4.736,0-8.459,3.807-8.459,8.544v20.218c0,0.254,0,0.508-0.17,0.846
		c-0.422,2.03-2.283,3.638-4.482,3.638c-2.537,0-4.484-2.03-4.484-4.483V94.67V81.558c0-2.453,1.947-4.483,4.484-4.483
		c1.775,0,3.383,1.015,4.145,2.623c2.539-1.607,5.668-2.623,8.967-2.623C702.754,77.075,710.621,85.111,710.621,94.67z"/>
	<path fill="#E57E25" d="M762.988,98.308v16.581c0,2.453-2.031,4.483-4.484,4.483c-2.199,0-3.891-1.607-4.398-3.638
		c-3.215,2.284-7.021,3.638-11.252,3.638c-5.752,0-10.744-2.368-14.381-6.175c-3.637-3.893-5.752-9.137-5.752-14.889
		c0-5.837,2.115-11.082,5.752-14.889c3.637-3.892,8.629-6.345,14.381-6.345c4.23,0,8.037,1.438,11.252,3.722
		c0.508-2.115,2.199-3.722,4.398-3.722c2.453,0,4.484,2.03,4.484,4.568V98.308z M754.02,98.308c0-3.553-1.268-6.599-3.299-8.713
		c-2.029-2.284-4.906-3.468-7.867-3.468c-3.045,0-5.922,1.184-7.867,3.468c-2.029,2.115-3.215,5.16-3.215,8.713
		c0,3.468,1.186,6.514,3.215,8.713c1.945,2.115,4.822,3.299,7.867,3.299c2.961,0,5.838-1.184,7.867-3.299
		C752.752,104.822,754.02,101.776,754.02,98.308z"/>
</g>
<g>
</g>
<g>
</g>
<g>
</g>
<g>
</g>
<g>
</g>
<g>
</g>
</svg>
