<?xml version="1.0" encoding="utf-8"?>
<!-- Generator: Adobe Illustrator 16.0.0, SVG Export Plug-In . SVG Version: 6.00 Build 0)  -->
<!DOCTYPE svg PUBLIC "-//W3C//DTD SVG 1.1//EN" "http://www.w3.org/Graphics/SVG/1.1/DTD/svg11.dtd">
<svg version="1.1" id="Layer_1" xmlns="http://www.w3.org/2000/svg" xmlns:xlink="http://www.w3.org/1999/xlink" x="0px" y="0px"
	 width="870px" height="130px" viewBox="0 0 870 130" enable-background="new 0 0 870 130" xml:space="preserve">
<g>
	<g>
		<path fill-rule="evenodd" clip-rule="evenodd" fill="#777777" d="M195.263,54.871c6.685,0,13.37,0.012,20.055-0.01
			c1.138-0.004,2.106-0.049,2.277,1.51c1.412,12.84-0.547,24.9-8.945,35.139c-7.719,9.412-17.878,14.426-30.042,15.533
			c-15.356,1.398-28.604-3.145-39.84-13.658c-20.059-18.77-19.38-51.775,1.327-69.844c10.831-9.451,23.388-13.602,37.602-12.484
			c10.514,0.826,19.658,5.09,27.453,12.225c0.75,0.687,0.747,1.099,0.028,1.796c-2.482,2.407-4.938,4.842-7.332,7.336
			c-0.838,0.873-1.415,0.803-2.27,0.047c-9.214-8.146-19.938-10.327-31.578-7.136c-14.009,3.841-22.342,13.437-25.004,27.533
			c-3.02,15.98,4.806,31.451,19.512,38.002c12.787,5.693,25.291,4.602,36.611-4.295c5.384-4.23,7.771-10.113,9.063-16.602
			c0.363-1.828-0.904-1.387-1.793-1.389c-8.683-0.02-17.366,0-26.049-0.018c-3.392-0.008-2.907,0.395-2.938-2.932
			c-0.028-2.996,0.068-5.996-0.038-8.988c-0.051-1.459,0.458-1.807,1.844-1.795C181.892,54.908,188.577,54.871,195.263,54.871z"/>
		<path fill-rule="evenodd" clip-rule="evenodd" fill="#777777" d="M393.131,68.785c-1.11-0.434-2.274-0.209-3.408-0.211
			c-8.376-0.023-16.752-0.055-25.128,0.023c-1.644,0.014-2.325-0.307-2.242-2.129c0.153-3.297,0.094-6.605,0.02-9.908
			c-0.03-1.303,0.391-1.717,1.704-1.713c13.524,0.039,27.048,0.035,40.572,0.004c1.123-0.004,1.609,0.281,1.773,1.473
			c3.518,25.641-11.125,45.764-34.301,50.055c-17.321,3.205-32.764-1.158-45.169-13.816c-13.123-13.389-17.348-29.65-11.714-47.541
			c5.632-17.885,18.34-29.058,36.661-33.01c15.456-3.333,29.541,0.148,41.589,10.791c1.16,1.026,1.408,1.663,0.137,2.82
			c-2.271,2.067-4.418,4.275-6.53,6.508c-0.965,1.022-1.573,1.181-2.774,0.157c-18.977-16.169-48.553-7.474-55.472,16.299
			c-6.938,23.834,10.587,47.041,35.771,45.498C377.688,93.285,391.523,85.143,393.131,68.785z"/>
		<path fill-rule="evenodd" clip-rule="evenodd" fill="#6188C6" d="M20.714,28.583C15.724,20.079,10.733,11.575,5.63,2.879
			c7.282,0,14.228,0,21.174,0c1.068,0.328,1.463,1.286,1.939,2.135c2.644,4.713,5.399,9.362,8.081,14.054
			c0.448,0.783,1.065,1.523,0.714,2.534c-2.337,2.903-4.193,6.183-6.957,8.758c-1.234,1.15-2.575,2.145-3.898,3.175
			c-1.231,0.958-2.312,1.043-3.254-0.361l0.026,0.025c-0.631-1.08-0.925-2.354-1.879-3.248l0.021,0.028
			C21.33,29.497,21.286,28.873,20.714,28.583z"/>
		<path fill-rule="evenodd" clip-rule="evenodd" fill="#DC5144" d="M37.491,21.556C33.929,15.33,30.367,9.104,26.804,2.879
			c6.353-0.042,12.705-0.083,19.057-0.133c0.568-0.004,0.991,0.096,1.307,0.666c3.286,5.933,7.066,11.586,9.967,17.735
			c-2.461,4.843-4.33,10.005-7.741,14.335c-0.655,0.832-1.099,1.887-2.33,2.061c-0.782-0.063-1.203-0.604-1.556-1.207
			c-2.577-4.415-5.122-8.847-7.687-13.268C37.551,22.603,37.311,22.123,37.491,21.556z"/>
		<path fill-rule="evenodd" clip-rule="evenodd" fill="#5B82C2" d="M39.735,62.166c-1.167-3.129-3.356-5.713-4.687-8.754
			c1.567-0.961,3.387-1.416,4.832-2.664c2.758-2.383,5.769-4.48,8.109-7.326c0.5-0.609,1.064-1.107,1.948-0.898
			c0.794,0.309,1.067,1.061,1.451,1.717c2.831,4.838,5.644,9.686,8.436,14.545c1.3,2.893,3.577,5.271,4.441,8.396
			c-3.804,3.377-7.663,6.686-12.004,9.377c-0.798,0.494-1.54,0.594-2.284-0.094c-0.635-0.584-1.379-0.555-2.146-0.309
			c-1.59-0.867-1.966-2.623-2.858-3.988c-1.661-2.539-3.032-5.26-4.58-7.875C40.004,63.637,39.606,62.982,39.735,62.166z"/>
		<path fill-rule="evenodd" clip-rule="evenodd" fill="#DD4E41" d="M59.442,58.979c-2.764-4.684-5.522-9.371-8.294-14.049
			c-0.427-0.721-0.91-1.41-1.367-2.113c-1.539-1.523-2.965-3.107-2.88-5.484c3.398-3.383,5.64-7.496,7.529-11.84
			c0.686-1.576,0.95-3.429,2.705-4.345c0.17,0.301,0.34,0.604,0.51,0.905c0.575,0.704,0.75,1.661,1.443,2.29l-0.025-0.03
			c0.687,1.049,0.969,2.334,1.89,3.248l-0.031-0.036c0.674,1.068,0.928,2.385,1.933,3.257c3.548,5.746,6.979,11.559,10.118,17.541
			c-0.286,0.193-0.579,0.166-0.838-0.029c-1.977-1.486-2.004-1.508-3.37,0.527c-2.294,3.42-5.091,6.422-7.802,9.496
			C60.578,58.754,60.186,59.305,59.442,58.979z"/>
		<path fill-rule="evenodd" clip-rule="evenodd" fill="#129D5A" d="M6.412,119.803c2.984-5.662,6.205-11.189,9.584-16.625
			c0.656-0.367,0.841-1.074,1.122-1.676c0.396-0.852,0.966-1.213,1.914-1.357c6.508-0.988,12.875-2.564,19.075-4.799
			c0.983-0.355,2.027-0.848,2.997,0.09c0.089,1.787-0.925,3.189-1.731,4.623c-2.022,3.596-4.113,7.152-6.118,10.76
			c-1.984,3.018-3.542,6.289-5.553,9.295c-0.464,0.322-0.971,0.318-1.495,0.199c-5.727-0.072-11.452,0-17.175-0.045
			C8.146,120.26,7.181,120.533,6.412,119.803z"/>
		<path fill-rule="evenodd" clip-rule="evenodd" fill="#179F5D" d="M41.042,95.717c-1.373-0.82-2.468,0.199-3.645,0.576
			c-6.14,1.971-12.315,3.797-18.761,4.449c-0.671,0.068-0.919,0.322-1.191,0.801c-0.365,0.643-0.527,1.48-1.449,1.635
			c4.528-7.914,9.042-15.838,13.593-23.74c1.756-3.049,3.599-6.047,5.402-9.068c2.868,2.729,5.777,5.438,8.27,8.514
			c1.485,1.832,3.615,3.107,4.595,5.363c0.039,0.225,0.042,0.451,0.018,0.678c-1.551,3.738-3.862,7.051-5.912,10.514
			C41.78,95.742,41.477,96.049,41.042,95.717z"/>
		<path fill-rule="evenodd" clip-rule="evenodd" fill="#5F85C4" d="M46.901,37.332c0.96,1.828,1.92,3.656,2.88,5.484
			c-0.48,0.023-0.869,0.199-1.175,0.598c-3.056,3.98-7.142,6.77-11.131,9.684c-0.857,0.629-1.624,0.219-2.428,0.314
			c-4.003-6.672-8.037-13.326-11.62-20.238c1.028,0.883,1.925,0.68,3.001-0.086c3.794-2.7,6.757-6.141,9.245-10.022
			c0.464-0.725,0.789-1.508,1.816-1.51c2.719,4.623,5.435,9.247,8.163,13.866C46.04,36.076,46.484,36.695,46.901,37.332z"/>
		<path fill-rule="evenodd" clip-rule="evenodd" fill="#DC493C" d="M59.442,58.979c3.116-3.193,6.144-6.461,8.637-10.186
			c0.379-0.566,0.753-1.141,1.184-1.668c0.913-1.121,1.845-2.037,2.611,0.135c0.185,0.523,0.522,0.926,1.099,1.063
			c2.011,2.871,3.735,5.92,5.272,9.057c1.624,3.313,1.307,6.678-0.481,9.85c-2.204,3.916-4.51,7.77-6.772,11.648
			c-0.846,0.088-1.206-0.529-1.545-1.113c-1.671-2.879-3.2-5.844-5.139-8.564c-0.404-0.566-0.649-1.205-0.331-1.92
			C62.466,64.514,60.954,61.746,59.442,58.979z"/>
		<path fill-rule="evenodd" clip-rule="evenodd" fill="#5880C0" d="M63.977,67.279c2.338,3.867,4.676,7.732,7.014,11.596
			c-3.563,6.164-7.126,12.324-10.689,18.484c-0.869-0.16-1.167-0.934-1.643-1.52c-2.876-5.055-5.806-10.078-8.763-15.086
			c-0.681-1.584-2.254-2.816-1.923-4.805c0.54-1.695,1.686-0.627,2.067-0.174c0.824,0.977,1.425,0.715,2.244,0.156
			c3.078-2.1,6.143-4.217,8.801-6.846C61.93,68.252,63.01,67.875,63.977,67.279z"/>
		<path fill-rule="evenodd" clip-rule="evenodd" fill="#FCC115" d="M59.17,95.787c0.377,0.523,0.754,1.049,1.131,1.572
			c-1.019,1.688-2.037,3.377-3.055,5.064c-6.906,2.742-13.581,6.076-20.763,8.105c-1.215,0.342-2.447,1.1-3.7,0.07
			c2.752-4.961,5.505-9.92,8.258-14.881c2.208-3.65,4.416-7.301,6.625-10.951c1.236-0.52,1.792,0.52,2.434,1.158
			C53.265,89.082,56.154,92.494,59.17,95.787z"/>
		<path fill-rule="evenodd" clip-rule="evenodd" fill="#FDC010" d="M32.784,110.6c4.635-0.475,8.813-2.449,13.086-4.074
			c2.857-1.086,5.603-2.461,8.403-3.699c0.949-0.42,1.887-0.975,2.974-0.402c-3.351,5.814-6.702,11.629-10.053,17.441
			c-0.402,0.236-0.83,0.391-1.3,0.393c-5.729,0.037-11.458,0.039-17.187-0.004c-0.466-0.002-0.913-0.1-1.23-0.494
			C29.082,116.613,30.844,113.555,32.784,110.6z"/>
		<path fill-rule="evenodd" clip-rule="evenodd" fill="#19985D" d="M47.973,75.949c0.734,1.51,1.469,3.02,2.203,4.533
			c-0.216,1.73-0.845,3.199-2.556,3.971c-3.483-3.834-6.865-7.762-10.628-11.334c-0.842-0.797-1.573-1.658-2-2.75
			c1.378-2.852,2.961-5.584,4.743-8.203C42.481,66.76,45.227,71.354,47.973,75.949z"/>
		<path fill-rule="evenodd" clip-rule="evenodd" fill="#168A54" d="M6.412,119.803c5.954,0.008,11.908-0.002,17.861,0.033
			c0.869,0.006,1.863-0.348,2.548,0.566l0.087,0.207c-6.657,0.045-13.315,0.096-19.972,0.117
			C6.408,120.727,5.097,120.951,6.412,119.803z"/>
		<path fill-rule="evenodd" clip-rule="evenodd" fill="#F3AC1D" d="M26.908,120.609c0,0-0.088-0.207-0.087-0.207
			c0.218-0.215,0.437-0.428,0.654-0.643c6.572,0.037,13.145,0.07,19.717,0.105c-0.128,0.783-0.676,0.883-1.343,0.877
			C39.536,120.689,33.222,120.652,26.908,120.609z"/>
		<path fill-rule="evenodd" clip-rule="evenodd" fill="#DC5144" d="M60.953,27.561c-1.296-0.695-1.606-1.964-1.89-3.248
			C59.983,25.227,60.519,26.364,60.953,27.561z"/>
		<path fill-rule="evenodd" clip-rule="evenodd" fill="#DC5144" d="M62.855,30.781c-1.379-0.649-1.659-1.951-1.933-3.256
			C61.819,28.461,62.376,29.598,62.855,30.781z"/>
		<path fill-rule="evenodd" clip-rule="evenodd" fill="#5F85C4" d="M21.576,29.951c1.333,0.674,1.642,1.939,1.879,3.248
			C22.524,32.293,21.967,31.17,21.576,29.951z"/>
		<path fill-rule="evenodd" clip-rule="evenodd" fill="#DC5144" d="M59.088,24.342c-1.021-0.423-1.268-1.334-1.443-2.29
			C58.539,22.556,58.803,23.456,59.088,24.342z"/>
		<path fill-rule="evenodd" clip-rule="evenodd" fill="#5F85C4" d="M20.714,28.583c0.99,0.025,0.867,0.755,0.883,1.396
			C21.061,29.667,20.831,29.16,20.714,28.583z"/>
		<path fill-rule="evenodd" clip-rule="evenodd" fill="#F1AE1D" d="M47.62,84.453c0.852-1.322,1.705-2.648,2.556-3.971
			c3.345,4.896,6.183,10.092,8.994,15.305c-2.435-1.639-4.288-3.865-6.205-6.039c-1.606-1.822-3.093-3.791-5.3-4.98
			C47.638,84.666,47.623,84.561,47.62,84.453z"/>
	</g>
	<g>
		<path fill="#777777" d="M481.352,100.645H467.09V25.641h-25.658V13.408h65.576v12.232h-25.656V100.645z"/>
		<path fill="#777777" d="M518.047,17.167c0-2.506,0.688-4.435,2.059-5.788c1.373-1.352,3.332-2.029,5.879-2.029
			c2.465,0,4.385,0.677,5.758,2.029c1.371,1.353,2.059,3.282,2.059,5.788c0,2.387-0.688,4.266-2.059,5.639
			c-1.373,1.373-3.293,2.059-5.758,2.059c-2.547,0-4.506-0.686-5.879-2.059C518.734,21.434,518.047,19.554,518.047,17.167z
			 M532.906,100.645h-14.023V34.65h14.023V100.645z"/>
		<path fill="#777777" d="M546.211,130c-4.217,0-7.717-0.498-10.502-1.49v-11.098c2.705,0.715,5.471,1.072,8.295,1.072
			c5.967,0,8.951-3.379,8.951-10.143V34.65h14.021v74.646c0,6.803-1.781,11.951-5.34,15.453C558.076,128.25,552.934,130,546.211,130
			z M552.119,17.167c0-2.506,0.686-4.435,2.059-5.788c1.371-1.352,3.33-2.029,5.877-2.029c2.467,0,4.385,0.677,5.758,2.029
			c1.373,1.353,2.059,3.282,2.059,5.788c0,2.387-0.686,4.266-2.059,5.639s-3.291,2.059-5.758,2.059
			c-2.547,0-4.506-0.686-5.877-2.059C552.805,21.434,552.119,19.554,552.119,17.167z"/>
		<path fill="#777777" d="M633.566,100.645l-1.969-8.652h-0.715c-1.949,3.063-4.725,5.469-8.324,7.221
			c-3.602,1.75-7.709,2.625-12.322,2.625c-7.996,0-13.963-1.988-17.9-5.969c-3.938-3.977-5.906-10.002-5.906-18.078V34.65h14.141
			v40.693c0,5.053,1.033,8.842,3.104,11.369c2.066,2.525,5.311,3.787,9.725,3.787c5.887,0,10.215-1.76,12.979-5.279
			c2.766-3.521,4.148-9.418,4.148-17.693V34.65h14.08v65.994H633.566z"/>
		<path fill="#777777" d="M705.887,100.645l-2.805-9.189h-0.479c-3.182,4.02-6.383,6.752-9.605,8.205
			c-3.223,1.451-7.359,2.178-12.412,2.178c-6.484,0-11.545-1.75-15.186-5.25c-3.639-3.502-5.459-8.453-5.459-14.857
			c0-6.803,2.525-11.936,7.578-15.396c5.051-3.461,12.748-5.35,23.092-5.668l11.396-0.357v-3.521c0-4.215-0.984-7.369-2.953-9.457
			s-5.023-3.133-9.16-3.133c-3.381,0-6.623,0.498-9.725,1.492c-3.104,0.994-6.088,2.168-8.951,3.52l-4.535-10.023
			c3.58-1.869,7.498-3.291,11.756-4.266c4.256-0.975,8.273-1.463,12.053-1.463c8.393,0,14.729,1.83,19.004,5.49
			c4.277,3.66,6.414,9.408,6.414,17.244v44.453H705.887z M685.002,91.098c5.092,0,9.18-1.422,12.262-4.268
			c3.084-2.842,4.625-6.832,4.625-11.963v-5.729l-8.473,0.357c-6.605,0.24-11.408,1.344-14.41,3.313
			c-3.004,1.969-4.506,4.982-4.506,9.039c0,2.945,0.875,5.223,2.625,6.834C678.877,90.293,681.502,91.098,685.002,91.098z"/>
		<path fill="#777777" d="M793.541,100.645h-14.082V60.07c0-5.092-1.025-8.891-3.074-11.396c-2.047-2.508-5.301-3.76-9.754-3.76
			c-5.928,0-10.264,1.75-13.008,5.25c-2.746,3.502-4.117,9.369-4.117,17.604v32.877h-14.023V34.65h10.979l1.971,8.652h0.715
			c1.99-3.143,4.813-5.568,8.475-7.279c3.658-1.71,7.715-2.566,12.172-2.566c15.832,0,23.748,8.055,23.748,24.166V100.645z"/>
		<path fill="#777777" d="M854.344,100.645l-2.805-9.189h-0.477c-3.184,4.02-6.385,6.752-9.607,8.205
			c-3.223,1.451-7.359,2.178-12.41,2.178c-6.484,0-11.547-1.75-15.186-5.25c-3.641-3.502-5.461-8.453-5.461-14.857
			c0-6.803,2.525-11.936,7.578-15.396c5.051-3.461,12.75-5.35,23.092-5.668l11.398-0.357v-3.521c0-4.215-0.984-7.369-2.955-9.457
			c-1.969-2.088-5.021-3.133-9.158-3.133c-3.383,0-6.625,0.498-9.727,1.492c-3.104,0.994-6.086,2.168-8.951,3.52l-4.533-10.023
			c3.58-1.869,7.496-3.291,11.754-4.266c4.256-0.975,8.273-1.463,12.053-1.463c8.393,0,14.729,1.83,19.006,5.49
			c4.275,3.66,6.414,9.408,6.414,17.244v44.453H854.344z M833.461,91.098c5.09,0,9.178-1.422,12.26-4.268
			c3.084-2.842,4.625-6.832,4.625-11.963v-5.729l-8.473,0.357c-6.604,0.24-11.406,1.344-14.41,3.313s-4.504,4.982-4.504,9.039
			c0,2.945,0.873,5.223,2.625,6.834C827.334,90.293,829.959,91.098,833.461,91.098z"/>
	</g>
</g>
<g>
	<path fill="#777777" d="M304.399,58.596c0,15.514-4.307,27.373-12.921,35.58c-8.614,8.207-21.021,12.311-37.22,12.311h-26.292
		V12.504h29.056c14.956,0,26.591,4.029,34.906,12.085C300.242,32.647,304.399,43.982,304.399,58.596z M288.2,59.109
		c0-22.498-10.521-33.748-31.563-33.748H243.33v68.203h10.928C276.886,93.564,288.2,82.08,288.2,59.109z"/>
</g>
<g>
</g>
<g>
</g>
<g>
</g>
<g>
</g>
<g>
</g>
<g>
</g>
</svg>
