<?xml version="1.0" encoding="utf-8"?>
<!-- Generator: Adobe Illustrator 16.0.0, SVG Export Plug-In . SVG Version: 6.00 Build 0)  -->
<!DOCTYPE svg PUBLIC "-//W3C//DTD SVG 1.1//EN" "http://www.w3.org/Graphics/SVG/1.1/DTD/svg11.dtd">
<svg version="1.1" id="Layer_1" xmlns="http://www.w3.org/2000/svg" xmlns:xlink="http://www.w3.org/1999/xlink" x="0px" y="0px"
	 width="5700px" height="1300px" viewBox="0 0 5700 1300" enable-background="new 0 0 5700 1300" xml:space="preserve">
<g>
	<path fill="#5580C1" d="M643.26,782.488c-7.37,12.471-14.674,24.988-22.129,37.408c-27.234,45.361-54.521,90.713-81.805,136.039
		c-0.703,1.18-1.064,2.652-2.501,3.27c-1.776-1.186-1.373-2.783-0.942-4.459c1.127-4.445,2.72-8.738,3.759-13.203
		c0.38-1.59,0.85-3.242,0.317-4.926c-0.095-0.451-0.084-0.912-0.014-1.383c1.286-2.262,0.957-4.662,0.475-7.07
		c1.579-19.484-3.065-37.371-13.337-54.002c-14.956-24.215-29.458-48.691-44.127-73.109c-4.771-7.928-9.805-15.752-14.127-23.963
		c-10.809-16.619-20.575-33.857-30.836-50.805c-2.683-4.428-5.819-8.621-7.597-13.559c-17.379-26.801-33.234-54.539-49.825-81.832
		c-5.695-9.359-11.832-18.486-16.165-28.627c-1.183-2.947-3.063-5.563-4.083-8.596c-22.035-36.713-44.048-73.426-66.111-110.111
		c-39.776-66.137-79.584-132.26-119.381-198.365c-30.717-51.05-61.438-102.082-92.179-153.097
		c-4.221-7.021-6.858-14.31-6.576-22.751c0.274-8.497,4.116-14.45,11.077-18.672c5.529-3.358,11.709-5.063,18.096-5.078
		c39.065-0.131,78.127-0.065,117.192-0.044c0.413,0,0.836,0.12,1.248,0.185c2.114,0.944,3.617,2.403,4.851,4.45
		c20.285,33.451,40.18,67.153,60.644,100.501c3.23,5.258,6.003,10.809,9.251,16.055c7.827,12.535,15.613,25.091,22.871,37.966
		c5.984,9.16,11.474,18.617,16.946,28.097c6.791,11.297,14.243,22.205,20.198,34.006c0.445,0.873,1.094,1.623,1.75,2.371
		c4.585,7.369,9.469,14.553,13.186,22.441c0.67,1.439,1.731,2.547,2.965,3.506c2.566,5.029,5.576,9.795,8.305,14.73
		c3.275,4.781,5.982,9.914,9.01,14.852c4.594,7.293,9.188,14.568,13.178,22.203c4.702,6.807,8.953,13.902,12.775,21.234
		c0.657,1.252,1.284,2.479,2.347,3.434c4.203,6.605,8.027,13.447,11.91,20.24c5.326,7.596,9.613,15.85,14.633,23.643
		c2.168,6.156,6.091,11.334,9.645,16.68c3.955,5.947,7.724,11.996,11.099,18.291c4.477,6.934,8.857,13.945,12.786,21.215
		c3.408,5.578,6.826,11.125,10.391,16.605c1.291,1.975,2.879,3.775,3.561,6.109c1.426,4.172,4.97,7.107,6.541,11.178
		c1.418,4.166,4.753,7.129,6.782,10.906c0.793,1.443,1.883,2.75,2.358,4.373c4.149,6.643,8.334,13.271,12.26,20.043
		c1.826,3.16,3.994,6.127,5.51,9.463c4.344,6.99,8.697,13.99,12.725,21.168c8.323,13.457,16.725,26.887,24.536,40.658
		c3.948,6.805,8.356,13.32,12.267,20.146c3.778,6.582,8.101,12.859,11.389,19.74c13.488,20.793,25.844,42.275,38.695,63.453
		c4.312,7.109,8.509,14.283,12.873,21.354C643.024,778.648,643.236,780.52,643.26,782.488z"/>
	<path fill="#CF392B" d="M297.081,207.444c-8.688-14.282-17.434-28.542-26.061-42.867c-15.815-26.262-31.556-52.563-47.333-78.84
		c3.24-0.064,6.481-0.194,9.724-0.194c36.259-0.012,72.522,0.275,108.785-0.099c25.796-0.261,47.792,9.04,67.758,24.515
		c12.83,9.951,20.945,23.436,28.503,37.358c-1.449,2.463-4.078,2.241-6.343,2.615c-15.538,2.61-30.997,5.229-46.138,10.049
		c-11.028,3.511-21.794,7.559-32.326,12.127c-11.718,5.084-23.134,10.885-33.97,17.808c-5.201,3.344-10.231,6.946-15.5,10.169
		c-2.403,1.477-4.892,2.865-5.244,6.164C298.854,207.021,298.175,207.79,297.081,207.444z"/>
	<path fill="#19934C" d="M224.125,1185.012c-21.14,0.037-42.286,0.109-63.425,0.146c-17.897,0.021-35.801,0.088-53.702-0.037
		c-8.196-0.051-15.997-1.912-22.476-7.25c-7.303-6.033-8.76-14.113-7.376-22.992c0.657-4.197,1.964-8.223,4.159-11.896
		c14.428-24.195,28.869-48.391,43.328-72.564c0.425-0.727,1.001-1.35,1.508-2.018c3.299,1.045,5.798,3.418,8.439,5.436
		c11.362,8.611,23.649,15.596,36.307,22.129c8.804,4.551,17.865,8.42,27.166,11.469c13.73,4.504,27.589,8.883,42.196,9.941
		c6.02,0.438,11.989,1.566,18.058,1.664c1.601,0.039,3.087,0.391,3.967,1.949c1.107,2.771-0.516,4.959-1.772,7.092
		c-10.182,17.162-20.833,34.07-30.817,51.357C228.336,1181.789,226.775,1183.953,224.125,1185.012z"/>
	<path fill="#F8C73A" d="M541.804,936.324c-0.345,6.365-2.026,12.42-3.894,18.48c-0.445,1.434-1.503,2.75-1.085,4.4
		c-28.364,49.492-58.6,97.844-87.669,146.906c-0.283,0.471-0.689,0.861-1.034,1.303c-3.044,3.223-6.723,5.172-10.907,6.811
		c-14.43,5.682-29.307,8.639-44.756,9.576c-27.043,1.656-52.511-3.436-76.47-16.277c-9.718-5.209-18.462-11.736-27.179-18.395
		c-1.794-1.363-2.521-3.672-4.376-5.008c-1.148-2.291,1.378-3.738,1.327-5.779c2.561-5.816,6.627-10.732,9.845-16.158
		c0.749-1.266,1.845-2.105,3.405-2.148c4.094,0.434,6.829,3.271,9.618,5.752c16.311,14.623,35.416,23.078,56.862,27.006
		c16.774,3.076,33.254,1.594,49.342-2.947c16.837-4.752,31.921-13.195,45.18-24.861c11.872-10.461,20.556-23.264,26.957-37.416
		c6.821-15.125,10.209-31.061,10.146-47.957c-0.06-15.645-3.608-30.27-9.542-44.293c-7.363-17.371-18.82-31.955-33.748-43.697
		c-10.529-8.258-22.219-14.352-34.859-18.633c-2.51-0.854-4.086-2.361-5.005-4.723c-0.13-0.428-0.169-0.852-0.118-1.279
		c3.219-8.084,8.587-14.971,12.754-22.553c0.679-1.225,1.358-2.43,1.829-3.76c1.367-1.785,2.553-3.662,3.58-5.68
		c1.205-2.373,2.412-4.869,5.427-5.498c1.172-0.146,2.178,0.363,3.229,0.803c22.546,9.609,43.034,22.264,59.804,40.387
		c10.572,11.422,19.569,23.902,26.481,37.955c3.938,7.994,7.308,16.154,9.981,24.586
		C537.859,936.154,539.254,936.742,541.804,936.324z"/>
	<path fill="#13A558" d="M263.953,838.047c6.343-11.529,13.218-22.746,20.209-33.9c2.188-1.693,4.506-1.525,7.173-1.156
		c9.99,1.361,19.097,5.23,27.394,10.51c10.586,6.74,19.898,15.025,26.911,25.773c6.487,9.969,11.352,20.668,13.253,32.205
		c2.602,15.811,2.108,31.58-4.232,46.918c-6.524,15.754-15.874,29.1-29.735,39.084c-13.065,9.414-27.643,14.623-43.688,16.484
		c-14.189,1.643-27.535-1.375-40.492-6.24c-11.153-4.199-20.852-11.059-29.038-19.832c-1.452-1.553-3.082-2.893-4.49-4.479
		c-1.652-1.822-2.884-3.791-2.431-6.418c6.318-11.51,13.139-22.715,20.158-33.822c3.068-0.871,4.066,1.449,4.87,3.48
		c3.754,9.404,10.288,16.229,18.668,21.752c9.911,6.521,20.784,7.678,32.033,6.486c15.408-1.635,27.095-10.039,34.632-22.99
		c7.141-12.293,9.099-25.77,3.996-39.844c-5.314-14.668-15.35-24.219-29.566-29.947c-6.385-2.566-13.022-1.92-19.624-2.117
		C267.833,839.92,265.301,840.701,263.953,838.047z"/>
	<path fill="#D03B2C" d="M643.26,782.488c-9.842-16.201-19.723-32.393-29.508-48.633c-8.26-13.711-16.396-27.516-24.59-41.266
		c-0.656-2.518,0.994-2.566,2.099-1.41c2.374,2.506,4.436,1.35,6.816,0.27c9.119-4.139,17.5-9.549,26.116-14.602
		c9.029-5.303,17.055-11.885,25.44-17.988c4.463-3.25,8.896-6.848,12.687-11.07c2.705-3.004,6.112-5.305,9.032-8.175
		c11.804-11.547,22.442-24.027,31.946-37.521c0.82-1.162,1.769-2.164,2.86-3.076c1.8-1.516,2.641-0.348,3.397,1.145
		c3.833,8.904,5.768,18.199,5.82,27.896c0.647,4.867,0.647,9.729,0,14.595c-0.252,15.654-5.096,29.893-13.184,43.166
		c-9.848,16.191-19.559,32.465-29.338,48.693c-7.789,12.92-15.584,25.828-23.406,38.711
		C647.523,776.396,646.041,779.885,643.26,782.488z"/>
	<path fill="#F3C234" d="M224.125,1185.012c10.907-18.258,21.827-36.518,32.722-54.766c1.655-2.789,3.202-5.633,4.803-8.443
		c-0.727-5.596,3.367-9.072,5.866-13.232c0.637-1.076,1.72-1.83,2.409-2.889c0.651-0.932,1.318-1.844,2.553-2.039
		c3.168-0.889,5.532,0.256,8.009,2.369c9.354,7.945,19.686,14.371,30.644,20.023c11.012,5.709,22.486,9.979,34.396,12.725
		c20.003,4.613,40.275,6.158,60.772,2.762c6.254-1.029,12.532-1.811,18.667-3.439c1.485-0.4,3.052-0.803,4.334,0.58
		c-7.347,13.176-18.453,22.605-31.001,30.393c-17.192,10.668-35.712,16.479-56.293,16.252c-37.744-0.439-75.498-0.137-113.245-0.137
		C227.213,1185.17,225.671,1185.072,224.125,1185.012z"/>
	<path fill="#D43F2F" d="M565.338,653.021c-8.453-13.408-16.725-26.923-24.507-40.728c-0.722-2.68,1.257-3.521,3.091-4.211
		c11.795-4.438,22.594-10.807,32.844-17.938c16.24-11.285,30.459-24.824,42.679-40.467c10.81-13.848,19.019-29.096,26.069-45.08
		c0.893-2.041,0.763-5.428,4.512-5.102c1.449,2.289,2.9,4.584,4.35,6.869c0.313,2.381,2.151,3.885,3.271,5.785
		c8.872,13.141,16.881,26.793,24.553,40.662c-3.648,9.447-9.959,17.293-15.646,25.471c-5.367,7.736-11.347,15.057-17.79,21.938
		c-6.042,6.445-12.557,12.453-19.176,18.336c-7.58,6.727-15.68,12.793-24.076,18.479c-10.398,7.042-21.53,12.757-32.697,18.416
		C569.281,657.244,567.358,655.258,565.338,653.021z"/>
	<path fill="#D13E2F" d="M565.338,653.021c4.934,3.088,8.719-0.379,12.666-2.377c11.455-5.762,22.488-12.25,32.922-19.75
		c7.552-5.426,14.615-11.426,21.569-17.59c12.259-10.869,23.007-23.078,32.63-36.262c4.637-6.355,9.138-12.861,12.885-19.822
		c1-1.867,1.752-3.93,4.19-4.406c6.085,9.805,12.214,19.566,18.212,29.43c2.71,4.461,5.163,9.096,7.719,13.648
		c0.75,1.324,1.498,2.664,1.425,4.27c-1.919-1.67-2.528,0.543-3.186,1.348c-4.352,5.311-8.305,10.959-12.55,16.363
		c-3.302,4.211-6.932,8.098-10.467,12.025c-5.764,6.436-12.18,12.261-18.438,18.23c-10.517,10.027-22.184,18.471-33.85,26.869
		c-5.456,3.936-11.386,7.561-17.57,10.588c-5.141,2.529-9.935,5.74-15.25,8.041c-3.519,1.531-6.453,3.695-8.274-1.682
		c-0.013-0.043-0.31-0.07-0.366-0.033c-0.173,0.207-0.301,0.461-0.445,0.68C580.863,679.611,572.944,666.414,565.338,653.021z"/>
	<path fill="#19A057" d="M204.787,936.998c15.667,20.531,36.165,32.334,61.993,34.988c11.462,1.148,22.282-0.795,33.158-4.203
		c22.036-6.875,38.121-20.873,48.672-40.934c5.742-10.924,9.409-22.637,9.727-35.508c0.355-14.367-2.367-27.799-8.449-40.521
		c-5.504-11.521-13.209-21.461-23.468-29.426c-7.186-5.572-14.921-10.207-23.313-13.332c-5.98-2.24-12.417-3.652-18.946-3.918
		c3.5-6.316,7.024-12.625,11.159-18.563c2.158-1.879,4.466-1.791,7.114-1.047c18.004,5.133,33.81,14.172,46.813,27.525
		c17.171,17.631,28.05,38.379,30.427,63.383c1.476,15.41,0.304,30.457-4.1,45.119c-3.912,13.016-10.621,24.764-19.474,35.252
		c-9.667,11.434-21.11,20.67-34.428,27.406c-11.126,5.623-22.92,9.746-35.405,10.598c-15.343,1.068-30.701,0.852-45.536-4.318
		c-17.182-5.996-32.305-15.172-44.828-28.504c-1.481-1.568-2.973-3.076-2.186-5.512
		C197.044,949.098,200.688,942.922,204.787,936.998z"/>
	<path fill="#D23E2F" d="M297.081,207.444c-1.668-4.896,2.171-6.376,5.137-8.519c12.426-9.009,25.687-16.637,39.331-23.571
		c11.761-5.975,24.013-10.982,36.479-15.204c18.649-6.315,37.934-10.266,57.479-12.777c0.977-0.125,1.969-0.049,2.951-0.055
		c9.348,14.737,18.268,29.74,26.971,44.852c-1.268,2.014-3.329,1.802-5.285,1.92c-15.901,0.949-31.662,3.077-47.134,6.82
		c-21.194,5.123-41.239,13.382-60.357,23.812c-10.367,5.653-20.15,12.25-29.464,19.522c-0.987,0.771-1.826,1.855-3.318,1.324
		C312.277,232.859,304.676,220.151,297.081,207.444z"/>
	<path fill="#D54030" d="M358.7,309.954c-7.285-12.145-14.561-24.309-21.834-36.475c0.293-4.786,4.335-6.706,7.385-9.126
		c6.726-5.34,14.124-9.875,21.571-13.957c13.645-7.449,27.654-14.4,42.855-18.346c5.984-1.547,11.918-3.348,17.96-4.703
		c8.226-1.834,16.564-2.295,24.943-3.04c8.988-0.781,17.915-0.771,26.87-1.052c2.432-0.065,4.803,0.141,6.723,1.898
		c9.375,14.738,18.334,29.73,26.982,44.907c-1.894,2.734-4.469,1.758-6.878,1.156c-11.671-2.894-23.589-4.511-35.541-4.151
		c-20.754,0.59-41.046,3.847-60.585,11.634c-12.786,5.1-24.732,11.535-36.007,19.225c-4.531,3.086-9.59,5.996-12.276,11.303
		C360.488,309.985,359.65,310.381,358.7,309.954z"/>
	<path fill="#DA4737" d="M392.247,365.668c-3.005-5.023-6.021-10.033-9.032-15.053c0.744-4.785,5.125-6.607,8.166-9.213
		c19.318-16.506,41.868-25.959,67.097-28.172c30.134-2.648,57.869,4.742,82.81,22.094c10.785,7.494,19.127,17.348,26.812,27.836
		c4.254,6.49,8.371,13.045,11.918,19.947c2.252,6.955,6.438,13.115,8.039,20.359c3.82,17.375,4.858,34.77,1.906,52.389
		c-4.062,24.215-14.988,44.824-31.742,62.688c-13.52,14.422-29.713,24.385-48.098,31.111c-4.303,1.59-5.423,1.119-9.053-3.422
		c-2.432-3.598-5.098-7.072-6.623-11.205c2.523-2.828,6.275-3.082,9.512-4.092c13.021-4.047,24.147-11.145,34.299-20.043
		c8.332-7.318,15.516-15.654,20.697-25.395c4.748-8.91,9.312-18.021,10.738-28.291c0.646-4.59,1.85-9.105,2.327-13.74
		c1.851-17.932-1.599-34.9-8.963-51.297c-6.843-15.236-16.65-28.096-29.766-38.275c-14.855-11.537-31.827-18.221-50.48-21.01
		c-15.898-2.371-31.409-0.18-46.239,4.813c-14.859,4.998-28.34,13.076-39.235,24.836
		C395.988,363.987,394.898,366.178,392.247,365.668z"/>
	<path fill="#D74433" d="M528.092,591.209c-6.199-9.701-12.225-19.502-17.76-29.6c-0.525-1.438,0.543-1.662,1.49-1.938
		c13.723-3.793,25.719-10.875,37.339-18.889c7.267-5.029,13.234-11.367,19.27-17.547c5.847-6.008,10.632-13.051,15.038-20.232
		c7.019-11.473,11.601-24,15.36-36.813c2.029-6.891,1.942-14.172,2.812-21.27c0.693-5.709,1.457-11.418,0.394-17.213
		c-0.312-1.691,0.404-3.385,2.528-3.797c4.262,6.961,8.804,13.76,12.725,20.922c5.02,9.139,10.692,17.875,15.887,26.908
		c2.389,8.063-2.109,14.684-4.514,21.77c-4.306,12.715-10.451,24.531-18.015,35.537c-7.394,10.764-15.604,20.889-25.497,29.604
		c-4.211,3.705-8.462,7.389-12.741,11.01c-3.836,3.229-8.155,5.975-12.456,8.609c-8.383,5.156-17.154,9.584-26.243,13.359
		C531.679,592.473,529.889,592.305,528.092,591.209z"/>
	<path fill="#D43F2E" d="M485.174,225.154c-7.463,0.011-14.971-0.423-22.401,0.13c-15.578,1.127-31.094,2.323-46.347,6.565
		c-10.763,3.012-21.097,6.939-31.384,11.01c-7.255,2.881-14.068,7.004-20.78,11.068c-5.894,3.561-11.829,7.061-17.485,11.049
		c-3.62,2.545-6.433,5.882-9.911,8.503c-5.668-9.308-11.327-18.612-16.995-27.913c2.065-4.439,6.521-6.467,10.112-9.002
		c11.699-8.273,24.192-15.306,37.179-21.449c17.274-8.171,35.205-14.672,53.911-18.101c14.583-2.67,29.317-5.622,44.355-4.847
		c5.879,9.647,11.764,19.279,17.625,28.922C483.842,222.398,484.475,223.799,485.174,225.154z"/>
	<path fill="#D84432" d="M358.7,309.954c1.302-6.967,7.64-9.594,12.376-12.99c11.208-8.004,23.368-14.422,36.225-19.74
		c13.872-5.73,28.254-8.497,42.875-10.728c18.324-2.783,36.472-1.535,54.471,2.557c2.482,0.563,4.932,1.198,7.51,1.009
		c8.567,13.305,16.565,26.939,24.469,40.637c-2.076,2.566-4.362,1.252-6.449,0.168c-10.845-5.623-22.435-8.977-34.267-11.699
		c-5.093-1.172-10.214-1.986-15.47-1.779c-11.926,0.5-23.915-1.064-35.777,1.648c-17.556,4.01-34.144,10.148-49.413,19.902
		c-5.607,3.594-10.385,8.119-15.736,11.938c-2.064,1.477-2.235,4.277-4.542,5.367c-2.843-2.588-4.189-6.168-6.159-9.338
		C365.331,321.327,362.063,315.618,358.7,309.954z"/>
	<path fill="#1B9852" d="M437.536,830.418c-2.455,3.787-4.913,7.59-7.356,11.373c-2.346-0.629-2.621-2.795-3.193-4.586
		c-5.66-18.063-14.727-34.324-26.292-49.191c-10.687-13.732-23.311-25.377-37.988-34.861c-9.952-6.438-20.223-12.068-31.387-16.074
		c-1.942-0.705-4.029-1.518-4.585-3.955c5.313-9.826,11.094-19.365,17.125-28.77c1.213-0.971,2.545-1.105,3.964-0.547
		c2.734,1.105,5.727,1.682,8.296,3.018c10.467,5.453,21.015,10.791,30.66,17.678c13.571,9.68,25.668,20.959,36.838,33.332
		c10.814,11.971,19.293,25.486,26.986,39.535c1.962,3.604,2.136,7.504,1.021,11.449c-0.193,0.58-0.517,1.107-0.924,1.568
		c-1.5,0.98-2.34,2.332-2.184,4.209C445.487,820.297,443.092,826.451,437.536,830.418z"/>
	<path fill="#10A75C" d="M263.953,838.047c3.662,0.021,7.328,0.119,10.999,0.049c16.731-0.33,29.208,7.26,39.195,20.256
		c6.392,8.318,8.864,17.83,9.908,27.797c0.563,5.438-0.952,10.934-2.57,16.176c-4.75,15.406-14.815,26.457-29.708,31.834
		c-25,9.031-52.792-0.641-63.689-26.615c-0.705-1.676-1.38-3.43-3.144-4.369C237.655,881.305,250.56,859.529,263.953,838.047z"/>
	<path fill="#129F55" d="M193.718,955.484c10.472,12.545,23.272,22.008,38.305,28.357c7.257,3.053,14.61,5.705,22.529,6.924
		c20.942,3.232,41.235,1.822,60.778-6.85c10.757-4.77,20.345-11.168,29.182-19.027c12.724-11.324,21.84-24.971,27.638-40.762
		c5.486-14.967,7.216-30.512,5.701-46.496c-1.3-13.646-4.648-26.496-11.197-38.584c-9.968-18.406-23.867-32.822-42.096-43.178
		c-7.301-4.162-15.131-6.799-22.979-9.482c-2.054-0.711-4.138-0.781-6.257-0.805c1.875-3.982,3.913-7.824,6.75-11.215
		c5.597-1.145,10.524,1.105,15.424,3.186c8.685,3.711,17.304,7.758,24.802,13.467c10.049,7.65,19.344,16.176,26.775,26.637
		c4.349,6.131,8.538,12.361,11.498,19.148c4.756,10.928,9.319,21.947,10.098,34.211c0.554,8.6,0.524,17.164,0.673,25.762
		c0.065,3.625-1.951,7.143-0.54,10.805c0.179,0.424,0.252,0.836,0.228,1.275c-0.051,0.412-0.201,0.791-0.404,1.154
		c-1.213,1.217-2.429,2.438-2.257,4.367c-2.11,5.223-5.869,9.432-8.668,14.232c-4.254,7.748-9.099,15.133-13.625,22.715
		c-3.107,6.738-7.504,12.746-11.078,19.207c-1.63,2.941-3.562,5.684-6.175,7.896c-0.322,0.291-0.684,0.529-1.071,0.727
		c-2.554,1.084-3.886,3.592-6.094,5.148c-23.096,16.271-48.851,23.1-76.882,21.52c-7.434-0.418-14.734-2.057-21.965-4.031
		c-9.69-2.648-19.048-6.176-27.641-11.275c-9.428-5.594-18.424-11.922-25.876-20.131c-1.375-1.52-2.333-3.174-1.365-5.307
		C189.432,961.613,191.312,958.381,193.718,955.484z"/>
	<path fill="#189A53" d="M298.826,1060.738c-4.047,5.838-7.116,12.307-11.579,17.881c-1.728,2.201-4.054,2.662-6.726,2.723
		c-16.393,0.391-32.504-1.395-48.634-4.525c-11.3-2.188-22.179-5.584-32.604-9.996c-11.853-5.014-23.476-10.771-34.021-18.471
		c-4.756-3.479-9.572-6.867-14.173-10.582c-1.926-1.557-3.584-3.188-3.042-5.984c4.751-8.66,9.805-17.141,15.212-25.426
		c1.202-0.096,2.151,0.33,3.047,1.166c24.783,22.791,54.339,35.428,87.373,40.023c15.816,2.203,31.77,1.861,47.564-1.227
		c1.796-0.363,3.828-1.508,5.605,0.244c0.562,0.883,0.779,1.959,0.288,2.793c-2.027,3.459-3.683,7.158-6.107,10.381
		C300.525,1060.418,299.708,1060.723,298.826,1060.738z"/>
	<path fill="#149E55" d="M390.178,908.369c-2.873-1.979-1.559-4.879-1.373-7.357c1.486-19.121,0.594-37.748-6.895-55.943
		c-6.047-14.709-14.228-27.824-25.215-38.963c-9.134-9.273-19.428-17.365-31.59-22.688c-6.697-2.945-13.015-6.768-20.481-7.668
		c-0.892-0.098-1.701-0.9-2.553-1.383c3.836-7.531,8.421-14.613,12.906-21.764c4.004-3.322,8.218-0.793,11.503,0.666
		c9.981,4.477,19.762,9.49,29.065,15.279c3.641,2.264,6.739,5.486,10.12,8.211c6.444,5.219,11.748,11.654,17.542,17.563
		c4.682,4.787,8.595,10.186,11.97,15.66c3.768,6.131,8.074,12.176,10.201,19.258c0.974,3.234,2.198,6.396,3.766,9.393
		c4.221,8.035,4.359,17.037,6.142,25.664c0.209,1,0.061,1.959-0.377,2.871c0.041,0.217,0.081,0.412,0.125,0.619
		c0.482,3.045-1.071,5.416-2.542,7.824c-2.713,4.455-5.604,8.785-7.974,13.439c-3.875,4.348-5.654,9.953-8.902,14.686
		C394.216,905.77,393.24,908.297,390.178,908.369z"/>
	<path fill="#1D9750" d="M148.048,1031.783c3.147,4.674,7.906,7.713,12.326,10.73c4.948,3.379,9.755,7.031,15.035,10.037
		c12.746,7.26,25.898,13.5,39.871,17.965c13.026,4.174,26.485,6.268,40.004,8.031c7.7,1.01,15.431,0.803,23.161,0.861
		c2.965,0.014,5.906-0.125,8.801-0.791c0.092,1.957-1.622,3.174-1.988,4.926c-0.578,0.707,0.16,1.461-0.098,2.166
		c-0.955,1.813-2.122,3.518-2.565,5.584c-1.085,2.643-3.088,4.721-4.485,7.178c-0.741,0.826-1.535,1.645-1.779,2.801
		c-0.562,1.93-2.428,2.371-3.801,3.393c-0.543,0.596-1.091,1.191-1.639,1.791c-6.4,2.469-12.816,0.02-19.214-0.051
		c-15.084-0.174-29.432-4.648-43.721-8.725c-10.92-3.115-21.521-7.445-31.715-12.648c-10.43-5.316-20.367-11.389-30.028-17.943
		c-3.492-2.373-6.658-5.172-10.044-7.68c-1.56-1.154-2.368-2.783-1.695-4.84C138.569,1046.723,143.233,1039.219,148.048,1031.783z"
		/>
	<path fill="#F6C538" d="M284.206,1085.209c0.351-0.557,0.703-1.117,1.053-1.666c3.063,2.4,6.199,4.711,9.186,7.18
		c17.369,14.352,37.118,23.99,59.104,28.467c17.426,3.553,35.015,3.928,52.813,1.264c14.721-2.215,28.256-7.369,41.763-13.039
		c-5.944,10.607-12.253,21.02-18.824,31.248c-10.366,4.064-21.421,4.32-32.238,5.953c-14.704,2.213-29.151-0.586-43.661-1.9
		c-4.301-0.391-8.521-1.85-12.724-3.004c-21.154-5.779-40.24-15.754-57.84-28.711c-1.014-0.744-1.98-1.615-2.767-2.588
		c-1.959-2.436-4.325-3.908-7.539-3.75c0.146-1.832,1.535-2.93,2.523-4.27c0.976-0.549,1.386-1.434,1.546-2.479
		c1.492-2.496,2.998-4.988,4.487-7.457C282.955,1089.203,283.558,1087.18,284.206,1085.209z"/>
	<path fill="#D64131" d="M528.092,591.209c7.398-2.545,14.572-5.475,21.441-9.355c6.376-3.602,12.583-7.412,18.604-11.535
		c3.226-2.191,6.175-4.834,9.188-7.336c9.74-8.111,18.416-17.201,26.054-27.379c3.713-4.949,7.304-9.975,10.441-15.275
		c5.426-9.164,9.893-18.807,13.582-28.84c2.389-6.473,4.498-12.979,5.77-19.746c5.759,9.16,12.201,17.918,16.854,27.756
		c-2.901,6.201-5.794,12.432-8.719,18.623c-3.726,7.895-8.324,15.258-13.075,22.594c-8.259,12.762-18.396,23.814-29.396,34.119
		c-11.83,11.102-24.902,20.531-39.347,28.041c-5.369,2.797-10.625,5.76-16.444,7.555c-0.996,0.305-1.685,0.998-2.213,1.867
		C536.188,605.506,532.094,598.381,528.092,591.209z"/>
	<path fill="#D94535" d="M374.974,336.243c-1.643-4.813,2.499-6.713,5.127-8.523c4.609-3.191,8.663-7.027,13.411-10.1
		c17.665-11.453,36.883-19.311,57.535-21.523c18.479-1.953,37.412-2.453,55.623,3.613c8.532,2.82,17.281,5.139,25.106,9.771
		c1.486,0.885,3.112,1.303,4.849,1.215c10.734,17.348,21.37,34.754,31.475,52.465c-3.074-2.072-5.614-4.764-7.936-7.553
		c-14.222-17.082-32.373-28.303-53.22-35.141c-20.897-6.836-42.245-7.488-63.742-2.701c-20.532,4.568-38.512,13.977-53.984,28.203
		c-1.854,1.703-3.996,3.105-6.001,4.646C380.022,346.081,376.842,341.543,374.974,336.243z"/>
	<path fill="#139A53" d="M414.909,867.168c-2.222-6.543-3.934-13.174-4.484-20.098c-0.239-3.039-2.442-5.361-3.335-8.15
		c-2.916-9.131-7.376-17.586-12.154-25.762c-4.501-7.711-10.486-14.467-16.422-21.205c-6.902-7.846-14.728-14.744-23.03-20.814
		c-7.396-5.422-15.869-9.451-24.285-13.381c-5.244-2.432-10.394-4.73-16.221-5.154c3.649-6.658,7.47-13.203,11.755-19.48
		c21.303,7.314,40.294,18.627,56.952,33.703c19.417,17.584,33.585,38.861,43.094,63.229c1.479,3.781,2.288,7.824,3.4,11.736
		C425.586,850.555,420.232,858.85,414.909,867.168z"/>
	<path fill="#199750" d="M450.307,808.465c0.89-4.318-0.192-8.168-2.437-11.938c-5.879-9.887-11.735-19.691-18.804-28.877
		c-10.454-13.588-22.633-25.264-35.802-35.949c-11.354-9.207-24.23-16.164-37.227-22.771c-3.836-1.959-8.105-3.066-12.182-4.574
		c3.601-6.664,7.453-13.186,11.683-19.486c1.704-1.279,3.375-0.83,5.155-0.049c12.021,5.203,23.381,11.59,34.393,18.684
		c11.631,7.471,22.03,16.463,32.292,25.623c6.625,5.936,12.062,12.951,17.811,19.689c7.041,8.266,12.697,17.473,18.547,26.572
		c1.576,2.459,2.051,5.193,3.038,7.797c0.135,1.922-0.765,3.516-1.709,5.084c-3.614,5.975-7.101,12.029-10.935,17.857
		C453.217,807.525,452.475,809.143,450.307,808.465z"/>
	<path fill="#139A53" d="M306.485,1047.305c-14.034,3.348-28.338,4.063-42.625,3.162c-18.175-1.127-35.772-5.133-52.696-12.246
		c-12.539-5.279-24.346-11.678-35.067-19.941c-4.59-3.537-10.166-6.229-12.835-11.92c2.881-5.438,5.96-10.766,9.441-15.852
		c1.923-0.281,3.128,0.912,4.409,2.068c18.614,16.973,40.164,28.477,64.733,33.988c18.728,4.195,37.632,4.939,56.643,1.363
		c4.984-0.939,9.943-1.922,14.84-3.246c2.252-0.623,4.697-1.389,6.796,0.621c1.143,1.723,0.105,3.123-0.638,4.643
		c-1.899,3.908-4.846,7.131-6.78,10.988C311.037,1043.451,310.734,1047.305,306.485,1047.305z"/>
	<path fill="#DA4635" d="M604.562,423.913c-0.263,1.084-0.908,2.24-0.716,3.238c1.81,9.496-0.998,18.764-1.225,28.135
		c-0.293,12.182-5.647,22.947-9.652,33.936c-2.58,7.064-6.913,13.75-11.336,20.174c-3.343,4.861-6.746,9.773-10.656,14.031
		c-5.364,5.859-10.939,11.656-17.26,16.609c-6.556,5.127-13.683,9.414-20.97,13.344c-5.798,3.141-12.032,5.463-17.993,8.301
		c-1.616,0.76-2.948-1.117-4.423-0.07c-3.403-4.938-6.573-10.01-9.262-15.377c3.274,3.121,6.587,2.273,10.461,0.83
		c24.588-9.115,44.179-24.688,58.607-46.348c11.639-17.49,18.223-36.855,19.217-58.18c0.852-17.971-1.064-35.313-7.804-52.057
		c-0.943-2.346-1.889-4.73-1.535-7.369C588.604,396.467,596.772,410.086,604.562,423.913z"/>
	<path fill="#149E55" d="M187.929,965.082c4.688,7.445,11.78,12.301,18.674,17.424c6.69,4.977,13.931,9.002,21.593,12.178
		c9.775,4.023,19.906,7.029,30.416,8.432c24.198,3.195,46.914-1.449,68.686-12.438c7.331-3.695,13.465-8.965,20.521-12.932
		c1.604,1.242,1.246,2.859,0.404,4.176c-4.338,6.736-7.523,14.182-12.7,20.398c-1.44,2.41-1.693,5.828-5.361,6.361
		c-3.923,1.172-6.889,4.355-10.966,5.197c-5.252,1.068-10.274,3.018-15.464,4.303c-9.594,2.35-19.306,3.918-29.233,3.895
		c-10.897-0.025-21.596-1.438-32.145-4.232c-12.973-3.443-25.583-7.752-36.976-15.035c-8.533-5.463-17.154-10.818-24.127-18.361
		c-1.343-1.443-2.965-2.734-1.829-5.057C181.974,974.453,184.722,969.625,187.929,965.082z"/>
	<path fill="#1B974F" d="M134.474,1054.568c2.58,4.477,7.203,6.828,11.112,9.6c16.604,11.736,34.242,21.715,53.559,28.406
		c13.193,4.572,26.62,8.404,40.394,10.607c8.856,1.41,17.904,1.686,26.865,2.432c1.53,0.135,3.125-0.17,4.488,0.84
		c-3.08,5.105-6.159,10.24-9.241,15.352c-4.675-1.996-9.724-1.166-14.54-1.557c-12.713-1.037-24.938-3.979-37.253-7.006
		c-10.754-2.643-20.993-6.619-30.95-11.068c-17.478-7.814-33.973-17.533-49.229-29.199c-1.559-1.193-3.15-2.43-3.535-4.574
		C128.644,1063.619,131.285,1058.936,134.474,1054.568z"/>
	<path fill="#1C924D" d="M365.216,601.952c22.09,36.725,44.177,73.427,66.264,110.128c-1.742,3.088-3.688,1.727-5.426,0.109
		c-7.624-7.07-16.151-12.908-24.651-18.867c-7.052-4.938-14.764-8.639-22.054-13.104c-3.912-2.383-8.557-3.488-12.632-5.742
		c-1.783-0.971-3.413-1.959-3.861-4.133c7.643-22.373,7.787-44.841,0.92-67.425C363.819,601.946,364.134,601.377,365.216,601.952z"
		/>
	<path fill="#179C55" d="M179.422,979.391c5.017,6.775,11.788,11.639,18.595,16.313c8.826,6.061,18.012,11.74,28.222,15.094
		c11.327,3.75,22.757,7.143,34.737,8.568c18.188,2.154,35.52-1.047,52.867-6.094c5.687-1.654,10.67-5.137,16.652-5.729
		c1.148,1.539,0.285,2.918-0.369,4.33c-1.481,3.186-3.454,6.094-5.195,9.146c-1.983,1.396-1.831,4.998-5.149,5.025
		c-2.599-0.611-4.98,0.336-7.417,0.98c-17.423,4.65-35.071,5.965-53.061,4.311c-15.302-1.4-30.004-5.016-43.889-11.34
		c-15.926-7.25-30.861-16.203-42.711-29.488C174.388,986.455,176.918,982.928,179.422,979.391z"/>
	<path fill="#1B974F" d="M362.856,670.342c9.688,4.73,19.695,8.895,28.9,14.512c9.677,5.924,19.32,11.926,27.912,19.43
		c2.821,2.457,6.514,3.869,8.408,7.455c0.719,1.352,2.188,0.939,3.402,0.342c10.41,17.162,20.822,34.305,31.2,51.482
		c2.522,4.174,4.911,8.416,7.359,12.627c0.122,3.391-0.545,6.262-4.571,6.896c-7.571-14.879-17.434-28.113-28.25-40.768
		c-10.688-12.479-23.176-22.951-36.338-32.539c-9.623-7.006-19.805-13.371-30.782-18.297c-4.858-2.166-9.438-4.977-14.555-6.615
		C357.979,680.039,360.412,675.193,362.856,670.342z"/>
	<path fill="#1D7C4B" d="M365.216,601.952c-0.48,0.338-0.96,0.646-1.44,0.967c-1.462-2.975-3.082-5.883-3.454-9.246
		C361.959,596.44,363.589,599.196,365.216,601.952z"/>
	<path fill="#E25B27" d="M715.377,642.652c0-4.867,0-9.728,0-14.595C716.713,632.924,716.713,637.786,715.377,642.652z"/>
	<path fill="#D64131" d="M657.647,512.151c-1.749-1.541-4.129-2.756-3.271-5.785C655.854,508.081,657.314,509.807,657.647,512.151z"
		/>
	<path fill="#DC483A" d="M392.247,365.668c8.063-10.488,18.649-17.646,30.164-23.93c11.253-6.131,23.298-8.979,35.742-10.824
		c12.304-1.822,24.394-0.494,36.447,2.246c13.836,3.154,26.216,9.273,37.653,17.469c9.602,6.885,17.261,15.582,24.07,25.219
		c5.119,7.229,8.947,15.074,11.858,23.256c6.519,18.391,8.036,37.115,4.013,56.486c-4.048,19.484-12.691,36.42-26.178,50.68
		c-7.084,7.488-15.139,14.074-24.545,19.078c-6.77,3.586-13.646,6.521-20.854,8.877c-2.021,0.678-3.994,1.486-6.172,0.803
		c-4.852-7.354-9.913-14.574-13.741-22.551c-0.435-1.779,0.911-1.727,1.976-1.803c9.451-0.641,18.012-3.928,26.186-8.572
		c7.795-4.428,14.409-10.244,20.318-16.869c6.443-7.223,10.779-15.719,14.29-24.689c4.541-11.611,4.292-23.598,3.489-35.762
		c-1.029-15.605-7.784-28.846-17.442-40.375c-11.04-13.191-25.169-21.879-42.424-25.627c-12.912-2.801-25.517-2.324-38.013,0.84
		c-11.571,2.926-21.918,8.703-30.761,16.842c-3.205,2.965-6.46,5.889-9.018,9.492c-0.894,1.248-1.986,2.479-3.869,1.813
		C401.045,380.395,396.646,373.038,392.247,365.668z"/>
	<path fill="#DD473B" d="M405.438,387.764c5.616-8.064,12.618-14.912,20.827-20.057c7.681-4.813,15.726-9.402,25.096-10.498
		c3.766-0.43,7.426-1.477,11.232-1.867c18.99-1.98,36.306,2.643,52.131,12.996c10.496,6.863,18.729,16.082,24.938,26.912
		c8.842,15.422,10.822,32.107,9.428,49.709c-0.827,10.381-4.701,19.432-9.178,28.291c-4.515,8.904-11.17,16.359-18.998,22.785
		c-4.041,3.287-8.336,6.125-12.756,8.822c-6.723,4.113-14.357,5.654-21.756,7.9c-2.075,0.65-3.773-1.053-5.697-0.281
		c-4.484-6.902-8.871-13.869-12.713-21.158c-0.312-3.135,2.116-2.783,3.953-3.027c7.818-1.035,15.537-2.121,22.725-5.936
		c20.328-10.766,31.701-31.748,28.795-53.951c-2.701-20.697-14.068-35.34-33.86-43.859c-23.347-10.055-51.448,0.916-63.629,19.289
		c-1.396,2.105-2.86,4.166-3.351,6.768c-0.207,1.035-0.505,2.338-2.171,1.813C415.446,404.182,410.441,395.979,405.438,387.764z"/>
	<path fill="#F4C334" d="M465.467,783.086c1.524-2.301,3.049-4.596,4.57-6.896c11.467,18.916,22.952,37.832,34.401,56.762
		c8.601,14.244,17.033,28.574,25.769,42.721c9.916,16.082,13.311,33.6,12.366,52.199c-0.091,2.545-1.508,4.953-0.715,7.57
		c-0.017,0.291-0.03,0.58-0.055,0.883c-0.871,0.564-1.388,1.34-1.62,2.361c-0.221,1.023,0.339,2.713-1.169,2.799
		c-1.742,0.098-1.968-1.654-2.369-3.006c-6.072-20.277-15.112-39.047-28.294-55.688c-11.721-14.791-25.674-27.055-41.694-37.115
		c-8.06-5.063-16.948-8.285-25.22-12.811c-1.355-0.754-2.794-1.324-3.901-2.447c2.478-6.006,6.647-11.041,9.647-16.762
		c0.413-1.703,1.253-3.125,2.586-4.27c0.176-0.303,0.355-0.607,0.537-0.922C455.633,800.178,460.9,791.844,465.467,783.086z"/>
	<path fill="#DE493D" d="M420.454,412.415c-0.12-5.84,3.658-9.848,6.997-13.781c10.874-12.834,25.131-19.957,41.721-19.953
		c18.229,0,33.795,7.027,45.116,22.264c14.421,19.41,15.513,40.213,4.495,60.734c-8.259,15.377-21.875,25.465-40.158,27.75
		c-3.543,0.434-7.347-0.125-10.633,1.893c-7.359-11.432-14.316-23.109-21.053-34.928c1.337-2.506,2.577-0.689,3.492,0.26
		c1.972,2.031,3.369,4.559,4.521,7.105c1.688,3.668,4.566,5.158,8.268,5.67c14.115,1.92,26.088-2.047,34.693-13.658
		c7.83-10.57,9.658-22.307,4.516-34.705c-5.573-13.408-16.279-20.52-30.191-21.785c-12.269-1.119-22.586,4.232-30.14,14.01
		c-3.692,4.785-6.939,9.984-6.927,16.48c0,1.514-0.444,3.184-2.69,2.881C428.247,426.038,423.946,419.458,420.454,412.415z"/>
	<path fill="#DE4A3E" d="M432.481,432.647c0.665-0.791,0.915-1.719,0.937-2.74c0.655-22.529,30.45-42.166,54.868-27.809
		c17.636,10.357,22.909,32.535,15.483,47.74c-6.283,12.865-18.451,21.709-32.713,21.709c-1.408,0-2.816-0.027-4.223,0
		c-6.324,0.15-11.519-1.166-14.349-7.916c-1.096-2.617-1.935-6.207-5.545-7.24C442.121,448.481,437.303,440.571,432.481,432.647z"/>
	<path fill="#F8C73A" d="M541.858,935.441c-1.786-2.727-0.169-5.113,0.715-7.57C542.772,930.438,542.504,932.945,541.858,935.441z"
		/>
	<path fill="#FAC741" d="M306.485,1047.305c1.642-2.385,3.28-4.732,4.919-7.104c3.842-2.654,4.712-2.604,7.854,0.656
		c11.004,11.389,24.103,19.783,39.157,24.172c12.114,3.527,24.692,4.744,37.593,2.736c15.456-2.41,29.273-8.221,41.604-17.479
		c9.417-7.07,16.761-16.121,22.657-26.377c7.097-12.383,10.329-25.887,11.718-39.838c0.931-9.381-1.433-18.504-3.91-27.467
		c-5.797-21.059-18.509-37.162-36.298-49.305c-6.725-4.576-14.026-8.428-22.149-10.24c-0.822-0.186-1.658-0.371-2.469-0.615
		c-5.598-1.639-6.315-3.086-4.191-8.393c3.612-6.994,7.643-13.744,12.064-20.268c1.039,1.584,2.407,2.631,4.268,3.238
		c17.448,5.654,32.755,14.928,45.718,27.896c13.663,13.695,22.982,29.91,29.122,48.34c5.505,16.545,5.638,33.285,3.677,50.057
		c-2.275,19.512-10.369,36.926-21.896,52.859c-12.603,17.43-29.32,29.195-48.908,37.441c-16.02,6.738-32.782,9.646-49.945,8.502
		c-18.883-1.252-36.765-6.436-53.148-16.494c-7.273-4.479-13.747-9.791-20.104-15.314c-1.587-1.389-4.16-1.277-4.99-3.574
		C300.879,1055.969,303.867,1051.736,306.485,1047.305z"/>
	<path fill="#199750" d="M449.77,809.387c-0.604,1.578-1.371,3.055-2.586,4.27C446.258,811.15,448.146,810.348,449.77,809.387z"/>
	<path fill="#11AB5F" d="M273.902,913.459c-15.356,1.227-26.684-11.922-26.439-25.682c0.271-15.645,10.806-26.377,26.498-26.605
		c12.863-0.172,25.433,10.229,25.807,26.496C300.088,901.561,286.568,915.559,273.902,913.459z"/>
	<path fill="#FCC945" d="M402.968,888.055c-0.998,3.727,0.559,5.512,4.213,6.373c18.496,4.396,33.078,14.732,45.365,29.063
		c14.849,17.326,21.892,37.578,21.219,59.84c-0.601,19.855-7.43,37.979-20.291,53.941c-11.794,14.605-26.607,24.242-44.025,29.643
		c-13.758,4.26-28.044,4.787-42.535,2.143c-15.155-2.762-28.088-9.684-40.183-18.609c-3.467-2.568-6.679-5.67-9.327-9.051
		c-2.002-2.545-4.059-0.695-6.001-1.193c1.97-5.193,5.6-9.426,8.377-14.158c1.202-1.975,2.407-3.934,3.606-5.914
		c4.572,1.422,6.096,5.996,9.116,9c9.574,9.541,20.438,16.477,33.718,19.719c12.518,3.066,24.911,2.666,37.194-0.422
		c8.107-2.045,15.494-6.072,22.158-11.135c2.979-2.246,6.056-4.412,8.603-7.367c19.505-22.566,25.953-47.479,14.388-75.912
		c-5.876-14.438-15.442-25.484-28.899-33.539c-8.05-4.826-16.733-7.209-25.648-9.268c-1.487-0.354-3.168-0.283-3.91-2.033
		c0.076-0.268,0.104-0.521,0.071-0.805C394.439,901.598,398.701,894.83,402.968,888.055z"/>
	<path fill="#FBC949" d="M390.106,909.172c10.171,0.352,19.496,3.566,28.4,8.313c9.097,4.852,16.967,11.227,22.838,19.631
		c14.989,21.422,19.609,44.365,9.823,69.488c-4.117,10.57-9.912,20.098-18.154,27.467c-11.362,10.123-24.746,16.729-40.396,18.344
		c-13.801,1.412-26.948-0.242-39.485-6.043c-11.68-5.387-21.352-13.313-28.674-23.979c-0.464-0.684-0.72-1.498-1.072-2.262
		c2.374-4.195,4.74-8.396,7.107-12.59c1.292-2.047,2.581-4.074,3.869-6.121c3.994-0.9,5.546,2.029,7.055,4.721
		c3.518,6.252,8.247,11.178,14.284,15.193c13.462,8.953,27.869,11.285,43.07,6.268c19.064-6.295,30.227-19.756,33.525-39.611
		c4.877-29.314-18.352-55.74-47.479-56.604c-2.488-0.059-6.072,1.135-6.344-3.408c2.179-5.203,5.907-9.512,8.446-14.508
		c0.61-1.547,1.487-2.945,2.542-4.223C389.675,909.188,389.89,909.172,390.106,909.172z"/>
	<path fill="#FCCC4C" d="M378.476,927.979c1.262,1.828,3.185,1.586,4.995,1.547c21.032-0.451,41.701,13.299,48.924,34.986
		c5.06,15.182,3.052,29.938-5.404,43.783c-11.075,18.125-34.027,27.293-54.136,22.541c-14.705-3.479-26.371-11.039-33.566-24.646
		c-1.183-2.215-3.326-3.143-4.924-4.77c4.089-6.729,8.174-13.467,12.263-20.207c0.651-1.059,1.443-2.078,1.191-3.469l0.291,0.137
		c3.188-1.486,4.449,0.275,4.998,3.027c0.811,4.135,1.446,8.26,3.28,12.188c7.109,15.207,24.98,21.969,39.928,14.941
		c15.192-7.156,21.543-25.355,14.124-40.461c-6.365-12.93-20.969-19.377-34.792-15.328c-2.301,0.668-4.52,1.643-6.836,2.225
		c-3.044,0.754-4.173-0.424-3.905-3.676C368.66,942.736,373.617,935.391,378.476,927.979z"/>
	<path fill="#FFCF4F" d="M364.904,950.799c0.514,3.127,2.347,2.42,4.338,1.537c9.056-4.004,18.115-4.477,27.438-0.625
		c15.852,6.582,23.118,26.172,16.653,40.893c-7.208,16.408-23.918,24.41-40.742,18.184c-12.979-4.805-19.908-15.145-21.186-28.977
		c-0.217-2.383-0.901-3.701-3.296-3.928c5.358-8.592,11.023-16.975,15.497-26.096C363.819,951.361,364.46,951.121,364.904,950.799z"
		/>
	<path fill="#149E55" d="M389.463,909.248c-0.518,1.596-1.137,3.152-2.542,4.221C386.327,911.195,387.974,910.256,389.463,909.248z"
		/>
	<path fill="#F8C73A" d="M284.206,1085.209c0.494,2.654-0.377,4.516-3.12,5.248C281.842,1088.531,282.847,1086.758,284.206,1085.209
		z"/>
	<path fill="#F8C73A" d="M276.599,1097.914c0.815,1.652,0.431,2.555-1.546,2.479C275.57,1099.566,276.08,1098.738,276.599,1097.914z
		"/>
	<path fill="#E04C3F" d="M489.307,434.514c-0.111,12.273-8.498,18.949-18.846,19.859c-9.84,0.867-20.041-9.48-20.09-19.426
		c-0.041-10.896,8.39-20.143,19.778-19.795C481.324,415.479,488.666,421.725,489.307,434.514z"/>
</g>
<g>
	<rect x="783.043" y="32.253" fill="none" width="5250.754" height="1265.747"/>
	<path fill="#EDF0F1" d="M1132.196,418.883c-9.802,15.081-26.814,28.934-51.03,41.559c-24.221,12.629-55.554,18.942-94.003,18.942
		c-49.192,0-89.859-15.735-121.991-47.213c-32.137-31.474-48.203-72.185-48.203-122.133v-84.814
		c0-49.943,14.984-90.654,44.952-122.133c29.968-31.474,68.603-47.213,115.913-47.213c47.116,0,84.152,11.591,111.107,34.774
		c26.951,23.183,40.711,53.058,41.276,89.621l-0.565,1.696h-53.15c-1.696-23.934-10.792-43.631-27.282-59.087
		c-16.495-15.452-40.287-23.183-71.385-23.183c-31.479,0-56.826,11.772-76.05,35.313s-28.837,53.389-28.837,89.541v85.309
		c0,36.537,10.743,66.619,32.229,90.252s48.813,35.45,81.987,35.45c23.368,0,42.5-3.101,57.391-9.308
		c14.887-6.202,25.537-13.256,31.947-21.155v-93.367h-90.186v-43.821h145.881V418.883z"/>
	<path fill="#EDF0F1" d="M1228.602,473.447V61.814h126.374c53.901,0,97.157,16.539,129.766,49.616
		c32.605,33.078,48.91,75.816,48.91,128.211v56.26c0,52.585-16.305,95.324-48.91,128.211
		c-32.609,32.893-75.865,49.334-129.766,49.334H1228.602z M1284.296,105.635v323.991h70.679c38.069,0,68.085-12.519,90.044-37.566
		c21.955-25.046,32.937-57.152,32.937-96.326v-56.772c0-38.794-10.981-70.71-32.937-95.756
		c-21.959-25.047-51.975-37.57-90.044-37.57H1284.296z"/>
	<path fill="#EDF0F1" d="M1908.248,418.883c-9.802,15.081-26.814,28.934-51.03,41.559c-24.221,12.629-55.554,18.942-94.003,18.942
		c-49.192,0-89.859-15.735-121.991-47.213c-32.137-31.474-48.203-72.185-48.203-122.133v-84.814
		c0-49.943,14.984-90.654,44.952-122.133c29.968-31.474,68.603-47.213,115.913-47.213c47.116,0,84.152,11.591,111.107,34.774
		c26.951,23.183,40.711,53.058,41.276,89.621l-0.565,1.696h-53.15c-1.696-23.934-10.792-43.631-27.282-59.087
		c-16.495-15.452-40.287-23.183-71.385-23.183c-31.479,0-56.826,11.772-76.05,35.313s-28.837,53.389-28.837,89.541v85.309
		c0,36.537,10.743,66.619,32.229,90.252s48.813,35.45,81.987,35.45c23.368,0,42.5-3.101,57.391-9.308
		c14.887-6.202,25.537-13.256,31.947-21.155v-93.367h-90.186v-43.821h145.881V418.883z"/>
	<path fill="#EDF0F1" d="M2148.556,473.447V61.814h126.374c53.901,0,97.157,16.539,129.766,49.616
		c32.605,33.078,48.91,75.816,48.91,128.211v56.26c0,52.585-16.305,95.324-48.91,128.211
		c-32.609,32.893-75.865,49.334-129.766,49.334H2148.556z M2204.25,105.635v323.991h70.679c38.069,0,68.085-12.519,90.044-37.566
		c21.955-25.046,32.937-57.152,32.937-96.326v-56.772c0-38.794-10.981-70.71-32.937-95.756
		c-21.959-25.047-51.975-37.57-90.044-37.57H2204.25z"/>
	<path fill="#EDF0F1" d="M2646.417,479.384c-42.597,0-76.475-14.18-101.636-42.548c-25.162-28.364-37.743-65.166-37.743-110.4
		v-12.439c0-43.538,12.956-79.77,38.874-108.704c25.912-28.93,56.587-43.396,92.023-43.396c41.276,0,72.468,12.439,93.579,37.318
		c21.106,24.879,31.664,58.054,31.664,99.516v34.774h-198.466l-0.848,1.409c0.565,29.323,8.009,53.429,22.334,72.317
		c14.321,18.889,34.394,28.333,60.218,28.333c18.845,0,35.383-2.686,49.616-8.058c14.229-5.371,26.527-12.766,36.895-22.193
		l21.769,36.227c-10.933,10.814-25.352,19.821-43.255,27.03C2693.533,475.78,2671.861,479.384,2646.417,479.384z M2637.935,205.716
		c-18.659,0-34.588,7.845-47.779,23.527c-13.195,15.686-21.301,35.361-24.313,59.03l0.565,1.409h141.075v-7.324
		c0-21.791-5.844-40.013-17.528-54.666C2678.266,213.045,2660.928,205.716,2637.935,205.716z"/>
	<path fill="#EDF0F1" d="M2924.043,383.261l4.806,21.486h1.696l5.371-21.486l70.396-215.711h56.826l-112.521,305.897h-42.124
		L2794.559,167.55h57.109L2924.043,383.261z"/>
	<path fill="#EDF0F1" d="M3367.057,291.379h-187.723v182.068h-55.695V61.814h272.255v43.821h-216.56v141.923h187.723V291.379z"/>
	<path fill="#EDF0F1" d="M3571.459,479.384c-42.598,0-76.475-14.18-101.635-42.548c-25.162-28.364-37.743-65.166-37.743-110.4
		v-12.439c0-43.538,12.956-79.77,38.874-108.704c25.912-28.93,56.586-43.396,92.023-43.396c41.275,0,72.467,12.439,93.578,37.318
		c21.105,24.879,31.664,58.054,31.664,99.516v34.774h-198.467l-0.848,1.409c0.566,29.323,8.01,53.429,22.334,72.317
		c14.322,18.889,34.395,28.333,60.219,28.333c18.846,0,35.385-2.686,49.617-8.058c14.229-5.371,26.525-12.766,36.895-22.193
		l21.768,36.227c-10.932,10.814-25.352,19.821-43.254,27.03C3618.576,475.78,3596.904,479.384,3571.459,479.384z M3562.979,205.716
		c-18.66,0-34.59,7.845-47.779,23.527c-13.195,15.686-21.301,35.361-24.314,59.03l0.566,1.409h141.074v-7.324
		c0-21.791-5.844-40.013-17.527-54.666C3603.309,213.045,3585.971,205.716,3562.979,205.716z"/>
	<path fill="#EDF0F1" d="M3928.528,392.025c0-12.25-4.665-22.334-13.994-30.25c-9.33-7.916-27-14.794-53.01-20.638
		c-37.133-8.093-65.072-19.052-83.824-32.883c-18.757-13.831-28.131-32.698-28.131-56.596c0-24.839,10.554-46.007,31.664-63.509
		c21.106-17.502,48.627-26.253,82.553-26.253c35.623,0,63.938,9.144,84.956,27.423c21.014,18.284,31.05,40.525,30.109,66.721
		l-0.565,1.696h-53.15c0-13.38-5.61-25.396-16.821-36.046c-11.216-10.646-26.059-15.973-44.528-15.973
		c-19.789,0-34.49,4.338-44.104,13.005c-9.611,8.671-14.418,19.132-14.418,31.381c0,12.064,4.24,21.583,12.723,28.554
		c8.48,6.975,25.727,13.195,51.736,18.659c38.635,8.296,67.379,19.556,86.229,33.785c18.844,14.233,28.271,33.316,28.271,57.25
		c0,27.141-10.982,49.1-32.937,65.873c-21.959,16.777-50.655,25.162-86.087,25.162c-39.015,0-69.738-9.895-92.165-29.685
		c-22.432-19.79-33.077-42.875-31.946-69.265l0.564-1.696h53.15c0.941,19.693,8.292,34.089,22.053,43.185
		c13.755,9.096,29.87,13.641,48.344,13.641c19.79,0,35.291-4.002,46.507-12.016C3922.918,415.54,3928.528,405.03,3928.528,392.025z"
		/>
	<path fill="#EDF0F1" d="M4126.993,93.761v73.789h57.957v41.276h-57.957V394.57c0,14.326,2.969,24.411,8.906,30.25
		c5.937,5.844,13.805,8.764,23.606,8.764c3.202,0,6.736-0.375,10.602-1.131c3.861-0.751,7.302-1.696,10.319-2.827l7.351,38.167
		c-4.147,3.393-10.227,6.171-18.235,8.34c-8.013,2.165-16.07,3.251-24.172,3.251c-22.617,0-40.618-6.829-53.998-20.497
		c-13.386-13.663-20.073-35.101-20.073-64.318V208.826h-48.627V167.55h48.627V93.761H4126.993z"/>
	<path fill="#EDF0F1" d="M4657.367,473.447h-266.883v-38.414l134.854-149.591c24.124-26.951,40.473-48.344,49.052-64.176
		c8.574-15.832,12.863-32.04,12.863-48.627c0-20.541-5.985-37.835-17.952-51.878c-11.972-14.039-27.848-21.063-47.638-21.063
		c-28.462,0-49.431,7.307-62.904,21.91c-13.478,14.608-20.214,35.105-20.214,61.491h-53.434l-0.564-1.696
		c-0.946-35.432,10.835-65.21,35.339-89.338c24.499-24.124,58.425-36.188,101.777-36.188c36.938,0,66.39,10.792,88.349,32.371
		c21.954,21.584,32.936,49.051,32.936,82.412c0,22.432-6.644,44.908-19.931,67.427c-13.288,22.524-31.903,46.697-55.837,72.517
		l-108.279,117.614l0.565,1.409h197.9V473.447z"/>
	<path fill="#EDF0F1" d="M4977.118,316.541c0,52.585-11.64,92.872-34.915,120.861c-23.28,27.988-55.179,41.983-95.699,41.983
		c-40.525,0-72.565-14.039-96.123-42.125c-23.563-28.082-35.339-68.32-35.339-120.719v-97.537c0-52.395,11.732-92.682,35.197-120.86
		c23.466-28.175,55.363-42.266,95.699-42.266c40.521,0,72.517,14.091,95.981,42.266c23.466,28.179,35.198,68.465,35.198,120.86
		V316.541z M4921.423,207.042c0-35.591-6.458-62.378-19.365-80.366c-12.912-17.983-31.62-26.977-56.119-26.977
		c-24.504,0-43.163,8.994-55.978,26.977c-12.819,17.988-19.225,44.775-19.225,80.366v120.618c0,35.591,6.503,62.471,19.507,80.645
		c13.006,18.173,31.758,27.26,56.261,27.26c24.499,0,43.114-9.038,55.836-27.119c12.723-18.076,19.083-45.004,19.083-80.786V207.042
		z"/>
	<path fill="#EDF0F1" d="M5201.877,473.447h-55.695V116.096l-84.249,1.131V77.081l139.944-15.267V473.447z"/>
	<path fill="#EDF0F1" d="M5526.149,55.877c14.137,0,28.131,1.604,41.983,4.806c13.854,3.207,25.304,7.258,34.351,12.157
		l-11.875,42.69c-9.236-4.709-18.897-8.525-28.978-11.45c-10.085-2.92-21.911-4.382-35.481-4.382
		c-29.402,0-53.105,11.781-71.103,35.339c-18.001,23.563-26.999,54.281-26.999,92.165v6.502
		c12.06-10.553,25.868-18.801,41.418-24.737c15.549-5.938,32.273-8.906,50.182-8.906c36.753,0,66.058,12.722,87.924,38.167
		c21.862,25.444,32.795,57.674,32.795,96.688c0,42.597-11.64,77.322-34.915,104.181c-23.279,26.857-54.329,40.287-93.154,40.287
		c-40.335,0-73.696-14.604-100.081-43.821c-26.39-29.212-39.58-70.396-39.58-123.546v-78.595c0-52.771,14.701-95.558,44.104-128.353
		S5482.612,55.877,5526.149,55.877z M5507.208,241.621c-19.039,0-35.246,3.861-48.627,11.574
		c-13.385,7.717-23.563,17.975-30.533,30.771v33.312c0,37.831,8.009,66.999,24.031,87.513c16.017,20.515,36.09,30.772,60.218,30.772
		c22.803,0,40.569-9.643,53.292-28.934c12.722-19.291,19.083-43.242,19.083-71.849c0-27.097-6.834-49.4-20.497-66.902
		C5550.508,250.376,5531.521,241.621,5507.208,241.621z"/>
	<path fill="#EDF0F1" d="M974.441,946.881h112.803v50.324H974.441v129.766h-55.695V997.205H805.095v-50.324h113.651V827.293h55.695
		V946.881z"/>
	<path fill="#EDF0F1" d="M1617.617,1168.247h-55.695V986.461h-199.879v181.786h-55.695V756.614h55.695v186.026h199.879V756.614
		h55.695V1168.247z"/>
	<path fill="#EDF0F1" d="M1896.939,1168.247c-1.886-9.232-3.349-17.387-4.382-24.455c-1.038-7.067-1.652-14.18-1.838-21.345
		c-10.368,14.701-23.89,26.999-40.569,36.895c-16.681,9.895-34.633,14.843-53.857,14.843c-31.854,0-56.119-8.15-72.799-24.455
		c-16.681-16.301-25.021-38.776-25.021-67.428c0-29.212,11.825-52.063,35.48-68.559c23.651-16.49,55.739-24.737,96.265-24.737
		h60.501v-30.25c0-17.904-5.469-32.089-16.397-42.549c-10.933-10.461-26.39-15.691-46.365-15.691
		c-17.908,0-32.468,4.572-43.68,13.712c-11.216,9.145-16.821,20.122-16.821,32.937h-53.15l-0.565-1.696
		c-1.131-22.237,9.374-42.593,31.522-61.066c22.145-18.47,50.748-27.706,85.804-27.706c34.677,0,62.573,8.813,83.684,26.434
		c21.106,17.626,31.664,43.021,31.664,76.191v147.295c0,10.934,0.565,21.486,1.696,31.664s3.203,20.17,6.22,29.968H1896.939z
		 M1804.492,1127.253c20.166,0,38.352-5.168,54.564-15.505c16.208-10.336,26.761-22.176,31.664-35.524v-49.616h-62.48
		c-22.432,0-40.384,5.641-53.857,16.914c-13.478,11.277-20.214,24.529-20.214,39.752c0,13.535,4.241,24.248,12.722,32.142
		S1787.904,1127.253,1804.492,1127.253z"/>
	<path fill="#EDF0F1" d="M2151.666,1130.363c18.469,0,34.725-5.698,48.768-17.104c14.039-11.401,21.063-25.396,21.063-41.983h50.041
		l0.565,1.697c0.941,26.389-10.792,49.854-35.198,70.396c-24.411,20.546-52.824,30.816-85.239,30.816
		c-44.483,0-78.502-14.512-102.06-43.539c-23.563-29.022-35.339-65.492-35.339-109.41v-11.874
		c0-43.538,11.825-79.867,35.481-108.986c23.65-29.12,57.625-43.68,101.918-43.68c35.808,0,65.068,10.558,87.783,31.664
		c22.71,21.111,33.688,47.027,32.937,77.746l-0.565,1.697h-50.323c0-18.66-6.6-34.535-19.79-47.638
		c-13.195-13.098-29.875-19.649-50.041-19.649c-29.217,0-50.089,10.496-62.622,31.483c-12.537,20.991-18.8,46.731-18.8,77.229
		v11.856c0,31.249,6.22,57.276,18.659,78.078S2122.263,1130.363,2151.666,1130.363z"/>
	<path fill="#EDF0F1" d="M2426.747,1026.607h-36.188v141.64h-55.695V727.212h55.695v255.574h35.622l83.684-120.437h66.721
		l-104.604,138.857l119.588,167.04h-65.59L2426.747,1026.607z"/>
	<path fill="#EDF0F1" d="M2713.137,756.614l131.18,334.452h1.696l131.18-334.452h71.244v411.633h-55.695v-162.844l5.654-167.367
		l-1.414-0.282l-133.441,330.493h-37.035L2693.63,838.602l-1.414,0.283l5.372,166.519v162.844h-55.695V756.614H2713.137z"/>
	<path fill="#EDF0F1" d="M3233.615,1054.879l9.895,38.449h1.697l75.201-230.979h61.915l-128.636,352.828
		c-7.73,20.541-18.8,38.449-33.219,53.716c-14.418,15.267-33.881,22.9-58.381,22.9c-4.523,0-10.274-0.521-17.245-1.556
		c-6.976-1.038-12.347-2.027-16.114-2.968l5.654-43.821c-1.131-0.19,2.213,0,10.036,0.565c7.818,0.565,12.767,0.848,14.843,0.848
		c11.873,0,21.578-5.278,29.119-15.832c7.536-10.558,13.854-22.241,18.941-35.057l13.288-31.946L3106.959,862.35h62.197
		L3233.615,1054.879z"/>
	<path fill="#EDF0F1" d="M3732.607,1036.219l0.564,1.697c0.752,38.639-12.818,71.01-40.711,97.112
		c-27.896,26.106-64.741,39.156-110.541,39.156c-46.555,0-84.487-16.49-113.793-49.476c-29.31-32.98-43.962-74.822-43.962-125.525
		v-73.223c0-50.699,14.652-92.59,43.962-125.667c29.306-33.078,67.238-49.616,113.793-49.616c46.551,0,83.586,12.395,111.107,37.177
		c27.516,24.786,40.896,57.63,40.145,98.526l-0.564,1.695h-53.434c0-28.836-8.481-51.639-25.444-68.416
		c-16.963-16.773-40.901-25.162-71.81-25.162c-31.099,0-55.885,12.523-74.354,37.57c-18.475,25.047-27.707,56.119-27.707,93.217
		v73.727c0,37.477,9.232,68.734,27.707,93.781c18.469,25.047,43.255,37.57,74.354,37.57c30.908,0,54.847-8.34,71.81-25.021
		c16.963-16.68,25.444-39.722,25.444-69.124H3732.607z"/>
	<path fill="#EDF0F1" d="M3858.133,784.037h-55.695v-56.825h55.695V784.037z M3858.133,1168.247h-55.695V862.35h55.695V1168.247z"/>
	<path fill="#EDF0F1" d="M4017.301,788.561v73.789h57.957v41.276h-57.957v185.743c0,14.326,2.969,24.411,8.906,30.251
		c5.937,5.845,13.805,8.764,23.606,8.764c3.202,0,6.736-0.375,10.602-1.131c3.861-0.75,7.302-1.695,10.319-2.826l7.351,38.166
		c-4.147,3.393-10.227,6.171-18.235,8.34c-8.013,2.165-16.07,3.252-24.172,3.252c-22.617,0-40.618-6.83-53.998-20.497
		c-13.386-13.663-20.073-35.101-20.073-64.318V903.626h-48.627V862.35h48.627v-73.789H4017.301z"/>
	<path fill="#EDF0F1" d="M4237.536,1054.879l9.896,38.449h1.695l75.203-230.979h61.914l-128.635,352.828
		c-7.731,20.541-18.801,38.449-33.22,53.716c-14.418,15.267-33.882,22.9-58.38,22.9c-4.523,0-10.275-0.521-17.246-1.556
		c-6.976-1.038-12.347-2.027-16.115-2.968l5.654-43.821c-1.131-0.19,2.214,0,10.037,0.565c7.818,0.565,12.766,0.848,14.842,0.848
		c11.875,0,21.579-5.278,29.12-15.832c7.536-10.558,13.853-22.241,18.942-35.057l13.287-31.946L4110.88,862.35h62.197
		L4237.536,1054.879z"/>
</g>
<g>
</g>
<g>
</g>
<g>
</g>
<g>
</g>
<g>
</g>
<g>
</g>
</svg>
