<?xml version="1.0" encoding="utf-8"?>
<!-- Generator: Adobe Illustrator 16.0.0, SVG Export Plug-In . SVG Version: 6.00 Build 0)  -->
<!DOCTYPE svg PUBLIC "-//W3C//DTD SVG 1.1//EN" "http://www.w3.org/Graphics/SVG/1.1/DTD/svg11.dtd">
<svg version="1.1" id="Layer_1" xmlns="http://www.w3.org/2000/svg" xmlns:xlink="http://www.w3.org/1999/xlink" x="0px" y="0px"
	 width="7200px" height="4500px" viewBox="0 0 7200 4500" enable-background="new 0 0 7200 4500" xml:space="preserve">
<g>
	<path fill-rule="evenodd" clip-rule="evenodd" fill="#557FC0" d="M617.61,1936.336c-7.371,12.47-14.675,24.987-22.13,37.408
		c-27.234,45.362-54.521,90.713-81.804,136.038c-0.703,1.181-1.064,2.653-2.501,3.271c-1.777-1.187-1.373-2.784-0.942-4.46
		c1.126-4.445,2.719-8.737,3.758-13.202c0.38-1.59,0.85-3.244,0.318-4.927c-0.095-0.45-0.084-0.912-0.014-1.382
		c1.286-2.263,0.957-4.662,0.475-7.071c1.579-19.484-3.066-37.37-13.337-54.001c-14.957-24.216-29.458-48.693-44.127-73.111
		c-4.772-7.927-9.805-15.751-14.127-23.961c-10.809-16.62-20.575-33.858-30.836-50.805c-2.683-4.428-5.82-8.622-7.597-13.559
		c-17.379-26.8-33.234-54.538-49.825-81.831c-5.695-9.36-11.832-18.487-16.165-28.628c-1.183-2.947-3.063-5.562-4.083-8.595
		c-22.035-36.713-44.048-73.425-66.111-110.111c-39.776-66.138-79.584-132.261-119.381-198.366
		c-30.717-51.049-61.438-102.081-92.179-153.097c-4.221-7.021-6.858-14.309-6.576-22.751c0.274-8.497,4.116-14.45,11.077-18.671
		c5.529-3.359,11.709-5.063,18.096-5.079c39.065-0.13,78.127-0.065,117.192-0.044c0.413,0,0.836,0.12,1.248,0.185
		c2.114,0.944,3.617,2.403,4.851,4.45c20.285,33.451,40.18,67.153,60.643,100.501c3.231,5.258,6.003,10.809,9.251,16.055
		c7.827,12.535,15.613,25.091,22.871,37.967c5.985,9.16,11.474,18.617,16.946,28.096c6.791,11.297,14.243,22.204,20.198,34.005
		c0.445,0.874,1.094,1.623,1.75,2.372c4.585,7.368,9.469,14.552,13.186,22.442c0.67,1.438,1.731,2.545,2.965,3.505
		c2.567,5.03,5.576,9.794,8.305,14.731c3.275,4.781,5.982,9.914,9.01,14.851c4.594,7.293,9.187,14.569,13.178,22.204
		c4.702,6.805,8.953,13.902,12.775,21.233c0.657,1.253,1.284,2.479,2.347,3.435c4.203,6.604,8.027,13.446,11.91,20.239
		c5.326,7.596,9.613,15.849,14.632,23.642c2.168,6.158,6.091,11.335,9.645,16.68c3.955,5.947,7.724,11.996,11.099,18.291
		c4.476,6.935,8.857,13.945,12.786,21.216c3.408,5.578,6.826,11.124,10.391,16.604c1.291,1.975,2.878,3.777,3.56,6.11
		c1.426,4.172,4.97,7.108,6.541,11.178c1.418,4.167,4.753,7.129,6.782,10.906c0.793,1.443,1.883,2.751,2.358,4.373
		c4.15,6.642,8.334,13.272,12.26,20.044c1.826,3.159,3.994,6.126,5.51,9.463c4.344,6.989,8.698,13.989,12.725,21.167
		c8.323,13.458,16.725,26.887,24.536,40.658c3.948,6.805,8.356,13.321,12.266,20.147c3.779,6.582,8.101,12.859,11.389,19.74
		c13.489,20.792,25.844,42.274,38.696,63.453c4.311,7.108,8.508,14.282,12.873,21.352
		C617.374,1932.495,617.586,1934.367,617.61,1936.336z"/>
	<path fill-rule="evenodd" clip-rule="evenodd" fill="#CF382C" d="M271.431,1361.292c-8.689-14.282-17.434-28.542-26.061-42.867
		c-15.815-26.262-31.556-52.563-47.333-78.84c3.24-0.065,6.481-0.195,9.724-0.195c36.259-0.011,72.522,0.276,108.785-0.098
		c25.796-0.261,47.792,9.04,67.758,24.515c12.83,9.951,20.945,23.435,28.503,37.358c-1.449,2.463-4.078,2.241-6.343,2.615
		c-15.538,2.61-30.997,5.23-46.138,10.049c-11.028,3.511-21.794,7.559-32.326,12.127c-11.718,5.084-23.134,10.885-33.97,17.808
		c-5.201,3.343-10.231,6.946-15.5,10.169c-2.403,1.476-4.891,2.865-5.244,6.164C273.203,1360.868,272.525,1361.638,271.431,1361.292
		z"/>
	<path fill-rule="evenodd" clip-rule="evenodd" fill="#15934C" d="M198.475,2338.859c-21.14,0.038-42.286,0.109-63.425,0.146
		c-17.898,0.022-35.801,0.088-53.702-0.037c-8.197-0.05-15.997-1.911-22.476-7.25c-7.303-6.033-8.76-14.113-7.376-22.991
		c0.657-4.198,1.964-8.224,4.159-11.898c14.428-24.195,28.869-48.39,43.328-72.563c0.425-0.727,1.001-1.351,1.508-2.019
		c3.299,1.046,5.798,3.418,8.44,5.437c11.362,8.61,23.649,15.595,36.306,22.128c8.804,4.551,17.865,8.42,27.166,11.469
		c13.731,4.505,27.589,8.883,42.196,9.941c6.02,0.439,11.989,1.567,18.058,1.665c1.601,0.039,3.087,0.391,3.967,1.948
		c1.107,2.773-0.516,4.96-1.772,7.093c-10.182,17.162-20.833,34.07-30.817,51.357
		C202.686,2335.637,201.125,2337.801,198.475,2338.859z"/>
	<path fill-rule="evenodd" clip-rule="evenodd" fill="#F8C73A" d="M516.153,2090.172c-0.345,6.364-2.026,12.419-3.893,18.48
		c-0.445,1.433-1.503,2.75-1.085,4.401c-28.365,49.491-58.6,97.843-87.669,146.906c-0.283,0.471-0.689,0.861-1.034,1.303
		c-3.044,3.223-6.723,5.172-10.907,6.809c-14.43,5.682-29.307,8.639-44.757,9.578c-27.043,1.655-52.511-3.436-76.47-16.279
		c-9.718-5.209-18.462-11.736-27.179-18.394c-1.794-1.362-2.521-3.672-4.376-5.008c-1.148-2.29,1.378-3.738,1.327-5.779
		c2.561-5.816,6.627-10.732,9.845-16.158c0.749-1.265,1.845-2.105,3.405-2.149c4.094,0.435,6.829,3.273,9.618,5.752
		c16.311,14.624,35.416,23.078,56.862,27.007c16.774,3.076,33.254,1.593,49.342-2.947c16.837-4.752,31.921-13.196,45.18-24.862
		c11.872-10.462,20.556-23.263,26.957-37.417c6.821-15.124,10.209-31.06,10.147-47.957c-0.06-15.644-3.608-30.268-9.542-44.293
		c-7.363-17.37-18.82-31.955-33.748-43.696c-10.529-8.259-22.219-14.352-34.859-18.634c-2.51-0.852-4.086-2.36-5.005-4.721
		c-0.13-0.429-0.169-0.852-0.118-1.281c3.219-8.084,8.587-14.97,12.754-22.551c0.679-1.226,1.359-2.431,1.829-3.76
		c1.367-1.786,2.553-3.663,3.581-5.681c1.205-2.372,2.412-4.868,5.426-5.497c1.172-0.147,2.178,0.363,3.229,0.803
		c22.545,9.609,43.034,22.263,59.804,40.387c10.572,11.421,19.569,23.901,26.481,37.955c3.937,7.993,7.307,16.153,9.981,24.586
		C512.209,2090.002,513.603,2090.59,516.153,2090.172z"/>
	<path fill-rule="evenodd" clip-rule="evenodd" fill="#14A559" d="M238.303,1991.895c6.343-11.531,13.218-22.747,20.209-33.902
		c2.187-1.693,4.506-1.525,7.173-1.155c9.99,1.361,19.097,5.23,27.394,10.51c10.586,6.739,19.898,15.024,26.911,25.773
		c6.487,9.968,11.352,20.668,13.253,32.204c2.602,15.812,2.108,31.58-4.232,46.919c-6.525,15.753-15.874,29.1-29.735,39.083
		c-13.065,9.415-27.643,14.624-43.688,16.485c-14.189,1.643-27.535-1.374-40.492-6.24c-11.153-4.2-20.852-11.059-29.038-19.832
		c-1.452-1.553-3.082-2.893-4.49-4.478c-1.652-1.823-2.884-3.792-2.431-6.418c6.318-11.511,13.139-22.715,20.158-33.822
		c3.068-0.872,4.066,1.449,4.87,3.479c3.754,9.404,10.288,16.229,18.668,21.753c9.911,6.521,20.784,7.678,32.033,6.485
		c15.408-1.634,27.095-10.038,34.632-22.99c7.141-12.292,9.099-25.769,3.996-39.844c-5.314-14.667-15.35-24.217-29.566-29.946
		c-6.385-2.567-13.023-1.921-19.624-2.117C242.182,1993.767,239.651,1994.548,238.303,1991.895z"/>
	<path fill-rule="evenodd" clip-rule="evenodd" fill="#CF392D" d="M617.61,1936.336c-9.843-16.202-19.723-32.394-29.509-48.634
		c-8.259-13.711-16.396-27.515-24.589-41.265c-0.656-2.518,0.994-2.567,2.098-1.411c2.374,2.506,4.436,1.351,6.817,0.271
		c9.119-4.14,17.5-9.55,26.116-14.602c9.029-5.301,17.054-11.883,25.44-17.987c4.463-3.25,8.896-6.848,12.687-11.07
		c2.705-3.005,6.112-5.306,9.032-8.177c11.804-11.546,22.442-24.027,31.946-37.521c0.821-1.162,1.769-2.165,2.861-3.077
		c1.799-1.514,2.64-0.347,3.397,1.146c3.833,8.903,5.768,18.199,5.82,27.896c0.648,4.867,0.648,9.729,0,14.596
		c-0.252,15.654-5.095,29.892-13.183,43.164c-9.848,16.192-19.559,32.465-29.338,48.694c-7.789,12.919-15.584,25.828-23.406,38.71
		C621.873,1930.243,620.391,1933.732,617.61,1936.336z"/>
	<path fill-rule="evenodd" clip-rule="evenodd" fill="#F3C235" d="M198.475,2338.859c10.907-18.258,21.827-36.518,32.722-54.766
		c1.655-2.788,3.202-5.633,4.803-8.443c-0.727-5.595,3.367-9.072,5.866-13.233c0.637-1.075,1.72-1.83,2.409-2.887
		c0.651-0.933,1.318-1.845,2.553-2.04c3.168-0.889,5.532,0.256,8.009,2.37c9.354,7.945,19.686,14.37,30.644,20.023
		c11.012,5.708,22.486,9.979,34.396,12.724c20.003,4.613,40.275,6.159,60.772,2.762c6.254-1.029,12.532-1.811,18.667-3.44
		c1.486-0.4,3.052-0.803,4.335,0.581c-7.347,13.175-18.454,22.605-31.002,30.392c-17.192,10.667-35.712,16.479-56.293,16.251
		c-37.744-0.439-75.498-0.135-113.245-0.135C201.563,2339.018,200.021,2338.919,198.475,2338.859z"/>
	<path fill-rule="evenodd" clip-rule="evenodd" fill="#D43E30" d="M539.688,1806.87c-8.454-13.408-16.725-26.924-24.507-40.728
		c-0.722-2.681,1.256-3.522,3.09-4.211c11.796-4.438,22.594-10.808,32.844-17.938c16.24-11.286,30.459-24.824,42.679-40.468
		c10.809-13.847,19.019-29.094,26.069-45.08c0.893-2.04,0.763-5.426,4.512-5.101c1.449,2.29,2.9,4.585,4.35,6.869
		c0.312,2.382,2.151,3.886,3.271,5.785c8.872,13.141,16.881,26.794,24.553,40.663c-3.649,9.447-9.959,17.292-15.646,25.47
		c-5.367,7.737-11.346,15.057-17.79,21.938c-6.042,6.446-12.556,12.452-19.176,18.335c-7.58,6.728-15.679,12.794-24.076,18.48
		c-10.398,7.043-21.53,12.757-32.697,18.416C543.631,1811.092,541.708,1809.105,539.688,1806.87z"/>
	<path fill-rule="evenodd" clip-rule="evenodd" fill="#D13D30" d="M539.688,1806.87c4.933,3.087,8.718-0.38,12.665-2.377
		c11.455-5.762,22.489-12.251,32.923-19.75c7.551-5.426,14.615-11.427,21.569-17.591c12.258-10.869,23.006-23.077,32.629-36.262
		c4.637-6.354,9.138-12.861,12.885-19.822c1.001-1.867,1.752-3.929,4.191-4.406c6.085,9.805,12.214,19.566,18.212,29.431
		c2.71,4.46,5.163,9.094,7.719,13.647c0.749,1.324,1.498,2.664,1.424,4.271c-1.918-1.671-2.528,0.542-3.185,1.346
		c-4.352,5.312-8.305,10.96-12.55,16.365c-3.302,4.21-6.932,8.096-10.467,12.024c-5.763,6.435-12.179,12.263-18.438,18.231
		c-10.516,10.027-22.183,18.47-33.849,26.87c-5.456,3.934-11.386,7.559-17.57,10.586c-5.141,2.529-9.935,5.741-15.25,8.042
		c-3.519,1.53-6.454,3.695-8.275-1.682c-0.013-0.043-0.309-0.07-0.366-0.033c-0.173,0.206-0.301,0.461-0.445,0.679
		C555.213,1833.458,547.294,1820.262,539.688,1806.87z"/>
	<path fill-rule="evenodd" clip-rule="evenodd" fill="#19A057" d="M179.137,2090.845c15.667,20.532,36.165,32.334,61.993,34.988
		c11.462,1.149,22.282-0.794,33.158-4.202c22.036-6.875,38.121-20.873,48.672-40.934c5.742-10.923,9.409-22.637,9.727-35.508
		c0.355-14.368-2.367-27.798-8.449-40.522c-5.504-11.52-13.209-21.46-23.468-29.425c-7.186-5.573-14.921-10.207-23.313-13.333
		c-5.98-2.24-12.417-3.651-18.946-3.917c3.5-6.316,7.024-12.626,11.159-18.563c2.158-1.878,4.466-1.791,7.114-1.047
		c18.004,5.133,33.81,14.173,46.813,27.526c17.171,17.63,28.05,38.379,30.427,63.382c1.476,15.41,0.304,30.457-4.1,45.119
		c-3.912,13.016-10.621,24.764-19.474,35.252c-9.667,11.434-21.11,20.67-34.428,27.408c-11.126,5.622-22.92,9.746-35.405,10.597
		c-15.343,1.069-30.701,0.851-45.536-4.319c-17.182-5.995-32.305-15.171-44.828-28.503c-1.481-1.568-2.973-3.076-2.186-5.513
		C171.394,2102.945,175.038,2096.77,179.137,2090.845z"/>
	<path fill-rule="evenodd" clip-rule="evenodd" fill="#D23D30" d="M271.431,1361.292c-1.668-4.895,2.171-6.376,5.137-8.519
		c12.426-9.008,25.687-16.636,39.331-23.571c11.761-5.974,24.013-10.982,36.479-15.204c18.649-6.315,37.934-10.266,57.479-12.777
		c0.977-0.125,1.969-0.049,2.952-0.055c9.347,14.737,18.267,29.74,26.97,44.852c-1.267,2.013-3.329,1.801-5.285,1.92
		c-15.901,0.949-31.662,3.077-47.134,6.82c-21.194,5.123-41.239,13.382-60.357,23.811c-10.367,5.653-20.15,12.251-29.464,19.522
		c-0.987,0.771-1.826,1.856-3.318,1.324C286.627,1386.707,279.026,1373.999,271.431,1361.292z"/>
	<path fill-rule="evenodd" clip-rule="evenodd" fill="#D53F31" d="M333.05,1463.801c-7.285-12.144-14.561-24.309-21.834-36.474
		c0.293-4.786,4.335-6.707,7.385-9.127c6.726-5.339,14.124-9.875,21.571-13.956c13.645-7.45,27.654-14.401,42.855-18.346
		c5.985-1.546,11.918-3.348,17.96-4.704c8.226-1.834,16.565-2.295,24.944-3.039c8.988-0.781,17.915-0.77,26.87-1.052
		c2.431-0.065,4.803,0.141,6.723,1.899c9.374,14.737,18.333,29.73,26.982,44.906c-1.894,2.735-4.469,1.758-6.878,1.156
		c-11.671-2.893-23.589-4.51-35.541-4.151c-20.754,0.591-41.046,3.847-60.585,11.634c-12.786,5.1-24.732,11.536-36.007,19.224
		c-4.531,3.087-9.59,5.996-12.276,11.303C334.838,1463.833,334,1464.229,333.05,1463.801z"/>
	<path fill-rule="evenodd" clip-rule="evenodd" fill="#DA4637" d="M366.597,1519.516c-3.005-5.024-6.022-10.033-9.032-15.052
		c0.744-4.786,5.125-6.608,8.166-9.214c19.318-16.506,41.868-25.958,67.097-28.172c30.134-2.648,57.869,4.743,82.81,22.095
		c10.785,7.493,19.127,17.347,26.811,27.836c4.254,6.49,8.372,13.044,11.918,19.946c2.252,6.956,6.438,13.115,8.039,20.359
		c3.82,17.375,4.859,34.77,1.907,52.389c-4.062,24.216-14.989,44.825-31.743,62.688c-13.519,14.422-29.713,24.384-48.097,31.112
		c-4.303,1.59-5.423,1.119-9.053-3.423c-2.432-3.598-5.098-7.071-6.623-11.205c2.523-2.827,6.275-3.082,9.512-4.091
		c13.021-4.048,24.147-11.145,34.298-20.044c8.332-7.319,15.516-15.654,20.698-25.394c4.748-8.91,9.311-18.021,10.738-28.292
		c0.646-4.59,1.85-9.105,2.327-13.739c1.851-17.933-1.598-34.9-8.963-51.298c-6.843-15.236-16.65-28.096-29.765-38.275
		c-14.856-11.536-31.827-18.221-50.481-21.01c-15.898-2.371-31.409-0.179-46.239,4.813c-14.859,4.998-28.34,13.077-39.235,24.836
		C370.338,1517.834,369.248,1520.026,366.597,1519.516z"/>
	<path fill-rule="evenodd" clip-rule="evenodd" fill="#D74334" d="M502.442,1745.057c-6.2-9.702-12.225-19.502-17.76-29.6
		c-0.526-1.438,0.543-1.661,1.49-1.937c13.723-3.793,25.719-10.875,37.339-18.888c7.266-5.03,13.234-11.368,19.269-17.548
		c5.847-6.007,10.632-13.05,15.038-20.233c7.019-11.471,11.601-24,15.361-36.811c2.029-6.891,1.942-14.173,2.811-21.271
		c0.694-5.708,1.457-11.417,0.394-17.211c-0.312-1.692,0.404-3.386,2.528-3.798c4.262,6.961,8.804,13.76,12.725,20.923
		c5.019,9.137,10.692,17.874,15.887,26.907c2.388,8.063-2.11,14.684-4.514,21.77c-4.306,12.714-10.451,24.531-18.015,35.536
		c-7.393,10.765-15.605,20.89-25.497,29.604c-4.211,3.706-8.462,7.39-12.741,11.01c-3.836,3.228-8.155,5.974-12.456,8.61
		c-8.383,5.155-17.155,9.583-26.243,13.359C506.028,1746.32,504.238,1746.152,502.442,1745.057z"/>
	<path fill-rule="evenodd" clip-rule="evenodd" fill="#D43E2F" d="M459.523,1379.002c-7.463,0.011-14.97-0.423-22.401,0.13
		c-15.578,1.128-31.094,2.323-46.347,6.565c-10.763,3.012-21.097,6.94-31.384,11.01c-7.255,2.881-14.068,7.004-20.78,11.069
		c-5.893,3.56-11.829,7.06-17.485,11.047c-3.62,2.545-6.433,5.882-9.911,8.503c-5.668-9.306-11.327-18.612-16.995-27.913
		c2.065-4.438,6.52-6.467,10.112-9.001c11.699-8.274,24.192-15.307,37.179-21.449c17.274-8.171,35.205-14.672,53.911-18.101
		c14.583-2.67,29.317-5.622,44.355-4.846c5.879,9.647,11.764,19.279,17.625,28.921
		C458.192,1376.246,458.824,1377.646,459.523,1379.002z"/>
	<path fill-rule="evenodd" clip-rule="evenodd" fill="#D84333" d="M333.05,1463.801c1.302-6.967,7.64-9.594,12.376-12.99
		c11.208-8.003,23.368-14.422,36.225-19.74c13.872-5.73,28.254-8.497,42.875-10.727c18.324-2.784,36.471-1.536,54.47,2.556
		c2.482,0.564,4.932,1.199,7.51,1.009c8.567,13.305,16.565,26.94,24.468,40.636c-2.075,2.566-4.362,1.253-6.449,0.168
		c-10.844-5.622-22.434-8.976-34.266-11.699c-5.093-1.172-10.214-1.986-15.47-1.779c-11.926,0.499-23.915-1.064-35.777,1.649
		c-17.556,4.009-34.144,10.147-49.413,19.902c-5.607,3.593-10.385,8.118-15.736,11.938c-2.064,1.476-2.235,4.276-4.542,5.367
		c-2.843-2.588-4.189-6.169-6.159-9.338C339.681,1475.174,336.412,1469.466,333.05,1463.801z"/>
	<path fill-rule="evenodd" clip-rule="evenodd" fill="#189852" d="M411.886,1984.265c-2.455,3.788-4.913,7.591-7.357,11.373
		c-2.345-0.629-2.621-2.794-3.193-4.585c-5.66-18.063-14.727-34.325-26.292-49.192c-10.687-13.733-23.311-25.378-37.988-34.862
		c-9.952-6.436-20.223-12.067-31.387-16.073c-1.942-0.705-4.029-1.519-4.585-3.955c5.313-9.827,11.094-19.366,17.125-28.77
		c1.213-0.971,2.545-1.106,3.964-0.547c2.734,1.106,5.727,1.682,8.296,3.017c10.467,5.453,21.015,10.792,30.66,17.678
		c13.571,9.68,25.668,20.96,36.838,33.332c10.814,11.97,19.293,25.487,26.986,39.535c1.962,3.603,2.136,7.504,1.021,11.449
		c-0.193,0.581-0.516,1.107-0.923,1.568c-1.5,0.982-2.34,2.333-2.184,4.21C419.837,1974.145,417.441,1980.299,411.886,1984.265z"/>
	<path fill-rule="evenodd" clip-rule="evenodd" fill="#10A75C" d="M238.303,1991.895c3.662,0.021,7.328,0.119,10.999,0.048
		c16.731-0.331,29.208,7.26,39.195,20.255c6.392,8.319,8.864,17.831,9.908,27.798c0.564,5.437-0.952,10.933-2.57,16.175
		c-4.75,15.406-14.815,26.458-29.708,31.835c-25,9.03-52.792-0.641-63.689-26.616c-0.705-1.675-1.38-3.429-3.144-4.368
		C212.005,2035.151,224.909,2013.376,238.303,1991.895z"/>
	<path fill-rule="evenodd" clip-rule="evenodd" fill="#119F56" d="M168.068,2109.331c10.472,12.546,23.272,22.009,38.305,28.358
		c7.257,3.053,14.61,5.706,22.529,6.923c20.942,3.233,41.235,1.823,60.778-6.848c10.757-4.771,20.345-11.168,29.181-19.029
		c12.724-11.324,21.84-24.97,27.638-40.76c5.486-14.967,7.216-30.512,5.701-46.497c-1.3-13.646-4.648-26.496-11.197-38.585
		c-9.968-18.405-23.867-32.822-42.096-43.176c-7.301-4.162-15.131-6.799-22.979-9.484c-2.054-0.711-4.138-0.781-6.257-0.803
		c1.875-3.983,3.913-7.825,6.75-11.216c5.597-1.145,10.524,1.106,15.424,3.185c8.684,3.711,17.304,7.759,24.802,13.467
		c10.049,7.651,19.344,16.176,26.775,26.637c4.349,6.132,8.538,12.361,11.498,19.148c4.756,10.928,9.319,21.948,10.098,34.211
		c0.554,8.6,0.524,17.164,0.673,25.762c0.065,3.626-1.951,7.143-0.54,10.805c0.179,0.423,0.252,0.836,0.228,1.275
		c-0.051,0.412-0.201,0.791-0.404,1.155c-1.213,1.216-2.429,2.437-2.257,4.368c-2.11,5.221-5.869,9.431-8.668,14.231
		c-4.254,7.749-9.099,15.133-13.625,22.715c-3.107,6.739-7.504,12.746-11.078,19.207c-1.63,2.941-3.562,5.683-6.175,7.896
		c-0.322,0.292-0.684,0.53-1.071,0.727c-2.554,1.084-3.886,3.592-6.094,5.149c-23.096,16.272-48.851,23.099-76.882,21.52
		c-7.434-0.418-14.734-2.057-21.965-4.032c-9.69-2.648-19.048-6.175-27.641-11.275c-9.428-5.595-18.424-11.922-25.876-20.131
		c-1.375-1.519-2.333-3.174-1.365-5.307C163.781,2115.461,165.661,2112.229,168.068,2109.331z"/>
	<path fill-rule="evenodd" clip-rule="evenodd" fill="#149A53" d="M273.176,2214.586c-4.047,5.838-7.116,12.307-11.579,17.88
		c-1.728,2.202-4.054,2.663-6.726,2.723c-16.393,0.391-32.504-1.395-48.634-4.525c-11.3-2.187-22.179-5.584-32.603-9.996
		c-11.853-5.013-23.476-10.771-34.021-18.47c-4.756-3.479-9.572-6.869-14.173-10.582c-1.926-1.557-3.584-3.189-3.042-5.985
		c4.751-8.66,9.805-17.14,15.212-25.425c1.202-0.097,2.151,0.33,3.047,1.166c24.783,22.79,54.339,35.427,87.373,40.022
		c15.817,2.203,31.77,1.862,47.565-1.226c1.796-0.363,3.828-1.508,5.605,0.244c0.562,0.884,0.779,1.96,0.288,2.794
		c-2.027,3.458-3.682,7.158-6.107,10.381C274.875,2214.266,274.058,2214.57,273.176,2214.586z"/>
	<path fill-rule="evenodd" clip-rule="evenodd" fill="#149E55" d="M364.527,2062.216c-2.873-1.979-1.558-4.878-1.373-7.357
		c1.486-19.121,0.594-37.749-6.894-55.943c-6.047-14.71-14.228-27.825-25.215-38.964c-9.134-9.273-19.428-17.364-31.59-22.687
		c-6.697-2.946-13.015-6.767-20.481-7.667c-0.892-0.098-1.701-0.901-2.553-1.384c3.836-7.531,8.421-14.612,12.906-21.764
		c4.004-3.321,8.218-0.792,11.503,0.667c9.981,4.477,19.762,9.49,29.065,15.279c3.641,2.263,6.739,5.486,10.12,8.21
		c6.444,5.22,11.748,11.655,17.542,17.564c4.682,4.786,8.595,10.185,11.97,15.66c3.768,6.131,8.074,12.176,10.201,19.257
		c0.974,3.234,2.198,6.397,3.766,9.393c4.221,8.036,4.359,17.037,6.142,25.665c0.209,0.999,0.06,1.959-0.377,2.871
		c0.041,0.216,0.081,0.412,0.125,0.619c0.482,3.044-1.071,5.415-2.542,7.824c-2.713,4.455-5.605,8.784-7.974,13.44
		c-3.875,4.346-5.654,9.952-8.902,14.684C368.566,2059.617,367.59,2062.145,364.527,2062.216z"/>
	<path fill-rule="evenodd" clip-rule="evenodd" fill="#1A9750" d="M122.398,2185.631c3.147,4.674,7.906,7.712,12.326,10.729
		c4.948,3.38,9.755,7.032,15.035,10.038c12.746,7.26,25.898,13.5,39.871,17.965c13.026,4.174,26.485,6.267,40.004,8.03
		c7.7,1.01,15.431,0.804,23.161,0.863c2.965,0.012,5.906-0.125,8.801-0.791c0.092,1.957-1.622,3.173-1.988,4.925
		c-0.578,0.706,0.16,1.46-0.098,2.166c-0.955,1.812-2.122,3.517-2.566,5.583c-1.085,2.644-3.088,4.722-4.485,7.179
		c-0.741,0.825-1.535,1.645-1.779,2.8c-0.562,1.931-2.428,2.372-3.801,3.392c-0.543,0.597-1.091,1.193-1.639,1.791
		c-6.4,2.469-12.816,0.021-19.214-0.05c-15.084-0.173-29.432-4.649-43.721-8.724c-10.92-3.115-21.522-7.445-31.715-12.649
		c-10.43-5.317-20.367-11.389-30.028-17.944c-3.492-2.372-6.658-5.171-10.044-7.679c-1.56-1.154-2.368-2.783-1.695-4.84
		C112.919,2200.57,117.583,2193.066,122.398,2185.631z"/>
	<path fill-rule="evenodd" clip-rule="evenodd" fill="#F6C539" d="M258.556,2239.057c0.35-0.557,0.703-1.118,1.053-1.666
		c3.063,2.399,6.199,4.71,9.186,7.179c17.369,14.352,37.118,23.99,59.104,28.467c17.426,3.553,35.015,3.928,52.813,1.263
		c14.721-2.214,28.256-7.368,41.762-13.038c-5.944,10.607-12.252,21.02-18.823,31.248c-10.367,4.065-21.422,4.319-32.239,5.952
		c-14.704,2.214-29.151-0.586-43.661-1.899c-4.301-0.391-8.521-1.851-12.724-3.004c-21.154-5.779-40.24-15.754-57.84-28.711
		c-1.014-0.744-1.98-1.616-2.767-2.588c-1.959-2.436-4.325-3.908-7.539-3.75c0.146-1.833,1.535-2.93,2.523-4.27
		c0.976-0.549,1.386-1.433,1.546-2.479c1.492-2.496,2.998-4.987,4.487-7.456C257.305,2243.051,257.907,2241.027,258.556,2239.057z"
		/>
	<path fill-rule="evenodd" clip-rule="evenodd" fill="#D64032" d="M502.442,1745.057c7.398-2.545,14.572-5.475,21.441-9.355
		c6.376-3.602,12.583-7.412,18.603-11.535c3.226-2.192,6.175-4.835,9.189-7.336c9.74-8.112,18.416-17.201,26.053-27.38
		c3.714-4.949,7.304-9.973,10.442-15.274c5.426-9.165,9.892-18.808,13.582-28.84c2.388-6.473,4.498-12.979,5.77-19.746
		c5.758,9.16,12.201,17.918,16.854,27.755c-2.902,6.202-5.794,12.431-8.719,18.623c-3.726,7.894-8.324,15.258-13.075,22.594
		c-8.259,12.762-18.397,23.814-29.396,34.119c-11.831,11.102-24.903,20.532-39.347,28.042c-5.369,2.795-10.625,5.758-16.444,7.554
		c-0.996,0.304-1.685,0.998-2.214,1.867C510.538,1759.354,506.443,1752.229,502.442,1745.057z"/>
	<path fill-rule="evenodd" clip-rule="evenodd" fill="#D94435" d="M349.323,1490.09c-1.642-4.813,2.499-6.712,5.127-8.524
		c4.609-3.19,8.663-7.027,13.411-10.098c17.665-11.454,36.883-19.312,57.535-21.525c18.479-1.953,37.413-2.452,55.623,3.614
		c8.533,2.821,17.282,5.138,25.107,9.772c1.486,0.885,3.112,1.302,4.848,1.215c10.735,17.347,21.371,34.754,31.475,52.465
		c-3.074-2.073-5.614-4.765-7.936-7.554c-14.221-17.082-32.372-28.302-53.219-35.139c-20.898-6.837-42.245-7.489-63.742-2.703
		c-20.532,4.569-38.512,13.978-53.985,28.205c-1.853,1.703-3.996,3.104-6.001,4.645
		C354.372,1499.928,351.192,1495.391,349.323,1490.09z"/>
	<path fill-rule="evenodd" clip-rule="evenodd" fill="#139A53" d="M389.259,2021.016c-2.222-6.544-3.934-13.175-4.484-20.098
		c-0.239-3.039-2.442-5.361-3.335-8.15c-2.916-9.132-7.376-17.586-12.154-25.763c-4.501-7.711-10.486-14.467-16.422-21.205
		c-6.902-7.846-14.727-14.743-23.03-20.814c-7.396-5.421-15.869-9.452-24.285-13.381c-5.244-2.431-10.394-4.731-16.221-5.155
		c3.649-6.658,7.47-13.202,11.755-19.479c21.303,7.314,40.294,18.627,56.952,33.702c19.417,17.585,33.585,38.861,43.094,63.229
		c1.479,3.782,2.288,7.825,3.4,11.737C399.935,2004.401,394.582,2012.697,389.259,2021.016z"/>
	<path fill-rule="evenodd" clip-rule="evenodd" fill="#179750" d="M424.656,1962.312c0.89-4.319-0.192-8.167-2.436-11.938
		c-5.879-9.886-11.736-19.691-18.804-28.877c-10.454-13.587-22.633-25.264-35.802-35.948c-11.354-9.207-24.23-16.164-37.226-22.772
		c-3.836-1.959-8.106-3.066-12.182-4.575c3.601-6.663,7.453-13.185,11.683-19.485c1.704-1.28,3.375-0.83,5.155-0.049
		c12.021,5.203,23.381,11.59,34.393,18.682c11.631,7.472,22.03,16.463,32.291,25.623c6.625,5.936,12.062,12.952,17.811,19.691
		c7.041,8.264,12.697,17.472,18.547,26.572c1.576,2.458,2.051,5.193,3.038,7.797c0.135,1.921-0.765,3.516-1.709,5.084
		c-3.614,5.974-7.1,12.029-10.934,17.857C427.567,1961.373,426.824,1962.989,424.656,1962.312z"/>
	<path fill-rule="evenodd" clip-rule="evenodd" fill="#139A53" d="M280.835,2201.152c-14.034,3.347-28.338,4.063-42.625,3.162
		c-18.175-1.128-35.772-5.133-52.696-12.246c-12.539-5.28-24.346-11.677-35.068-19.942c-4.59-3.537-10.166-6.229-12.835-11.92
		c2.881-5.438,5.96-10.766,9.442-15.851c1.923-0.282,3.128,0.912,4.409,2.069c18.614,16.972,40.164,28.476,64.733,33.988
		c18.728,4.195,37.632,4.938,56.643,1.363c4.984-0.939,9.943-1.922,14.84-3.246c2.252-0.624,4.697-1.389,6.796,0.62
		c1.142,1.724,0.105,3.124-0.638,4.644c-1.899,3.907-4.846,7.13-6.78,10.987C285.387,2197.299,285.084,2201.152,280.835,2201.152z"
		/>
	<path fill-rule="evenodd" clip-rule="evenodd" fill="#DA4536" d="M578.911,1577.76c-0.263,1.085-0.908,2.241-0.716,3.239
		c1.81,9.496-0.998,18.764-1.224,28.134c-0.293,12.182-5.648,22.947-9.653,33.935c-2.58,7.065-6.913,13.75-11.335,20.175
		c-3.343,4.861-6.747,9.772-10.657,14.031c-5.364,5.86-10.939,11.655-17.26,16.609c-6.555,5.127-13.682,9.414-20.969,13.343
		c-5.798,3.142-12.033,5.464-17.993,8.302c-1.617,0.76-2.949-1.118-4.423-0.07c-3.404-4.938-6.573-10.011-9.262-15.377
		c3.274,3.12,6.587,2.273,10.461,0.83c24.588-9.115,44.179-24.688,58.607-46.349c11.639-17.489,18.223-36.854,19.217-58.179
		c0.852-17.971-1.064-35.313-7.803-52.057c-0.944-2.345-1.889-4.731-1.536-7.369C562.953,1550.314,571.122,1563.934,578.911,1577.76
		z"/>
	<path fill-rule="evenodd" clip-rule="evenodd" fill="#149E55" d="M162.278,2118.93c4.688,7.445,11.78,12.301,18.674,17.423
		c6.69,4.977,13.931,9.002,21.593,12.177c9.775,4.025,19.906,7.031,30.416,8.433c24.198,3.195,46.914-1.449,68.686-12.438
		c7.331-3.695,13.465-8.964,20.521-12.931c1.604,1.242,1.246,2.859,0.404,4.174c-4.338,6.738-7.523,14.182-12.7,20.4
		c-1.44,2.41-1.693,5.828-5.361,6.361c-3.923,1.171-6.889,4.355-10.966,5.197c-5.252,1.069-10.274,3.018-15.464,4.302
		c-9.594,2.351-19.306,3.919-29.233,3.896c-10.898-0.027-21.596-1.438-32.145-4.233c-12.973-3.444-25.583-7.752-36.976-15.035
		c-8.533-5.464-17.154-10.819-24.127-18.362c-1.343-1.443-2.965-2.735-1.829-5.057
		C156.323,2128.301,159.071,2123.472,162.278,2118.93z"/>
	<path fill-rule="evenodd" clip-rule="evenodd" fill="#18964F" d="M108.823,2208.416c2.58,4.477,7.203,6.828,11.112,9.599
		c16.604,11.737,34.242,21.715,53.559,28.406c13.193,4.573,26.62,8.405,40.394,10.607c8.856,1.411,17.904,1.687,26.865,2.433
		c1.53,0.135,3.125-0.17,4.488,0.84c-3.08,5.105-6.159,10.24-9.241,15.35c-4.675-1.996-9.724-1.166-14.54-1.557
		c-12.713-1.036-24.938-3.978-37.253-7.005c-10.754-2.643-20.993-6.62-30.95-11.069c-17.478-7.813-33.973-17.532-49.23-29.198
		c-1.558-1.193-3.15-2.431-3.535-4.574C102.993,2217.466,105.635,2212.783,108.823,2208.416z"/>
	<path fill-rule="evenodd" clip-rule="evenodd" fill="#19924D" d="M339.566,1755.8c22.09,36.724,44.177,73.426,66.264,110.128
		c-1.742,3.087-3.687,1.726-5.426,0.108c-7.624-7.07-16.151-12.908-24.651-18.866c-7.052-4.938-14.764-8.639-22.054-13.104
		c-3.912-2.382-8.557-3.488-12.632-5.741c-1.783-0.971-3.413-1.959-3.861-4.134c7.643-22.372,7.787-44.841,0.92-67.425
		C338.169,1755.794,338.484,1755.225,339.566,1755.8z"/>
	<path fill-rule="evenodd" clip-rule="evenodd" fill="#179C55" d="M153.772,2133.238c5.017,6.776,11.788,11.638,18.595,16.312
		c8.826,6.061,18.012,11.74,28.222,15.094c11.327,3.75,22.757,7.143,34.737,8.569c18.188,2.154,35.52-1.048,52.867-6.094
		c5.687-1.654,10.67-5.137,16.652-5.729c1.148,1.54,0.285,2.918-0.369,4.33c-1.481,3.185-3.454,6.094-5.195,9.147
		c-1.983,1.396-1.831,4.998-5.149,5.025c-2.599-0.612-4.981,0.336-7.417,0.981c-17.423,4.651-35.071,5.964-53.061,4.31
		c-15.302-1.401-30.004-5.015-43.889-11.34c-15.926-7.25-30.861-16.202-42.711-29.488
		C148.737,2140.302,151.268,2136.776,153.772,2133.238z"/>
	<path fill-rule="evenodd" clip-rule="evenodd" fill="#18964F" d="M337.206,1824.19c9.688,4.731,19.695,8.893,28.9,14.51
		c9.677,5.925,19.32,11.926,27.912,19.43c2.821,2.458,6.514,3.869,8.408,7.456c0.719,1.351,2.187,0.938,3.402,0.342
		c10.41,17.162,20.822,34.304,31.2,51.482c2.523,4.173,4.911,8.416,7.36,12.626c0.122,3.392-0.545,6.262-4.571,6.897
		c-7.572-14.878-17.434-28.113-28.251-40.767c-10.687-12.479-23.175-22.952-36.338-32.54c-9.623-7.005-19.805-13.37-30.782-18.297
		c-4.858-2.165-9.438-4.976-14.555-6.614C332.329,1833.887,334.762,1829.041,337.206,1824.19z"/>
	<path fill-rule="evenodd" clip-rule="evenodd" fill="#1B7B4A" d="M339.566,1755.8c-0.48,0.337-0.96,0.646-1.44,0.966
		c-1.462-2.974-3.082-5.882-3.454-9.246C336.309,1750.287,337.939,1753.043,339.566,1755.8z"/>
	<path fill-rule="evenodd" clip-rule="evenodd" fill="#E25927" d="M689.726,1796.501c0-4.867,0-9.729,0-14.596
		C691.063,1786.772,691.063,1791.634,689.726,1796.501z"/>
	<path fill-rule="evenodd" clip-rule="evenodd" fill="#D64032" d="M631.997,1665.999c-1.749-1.541-4.129-2.756-3.271-5.785
		C630.204,1661.929,631.664,1663.654,631.997,1665.999z"/>
	<path fill-rule="evenodd" clip-rule="evenodd" fill="#DC473A" d="M366.597,1519.516c8.063-10.489,18.649-17.646,30.164-23.929
		c11.253-6.131,23.297-8.979,35.742-10.825c12.304-1.823,24.394-0.494,36.447,2.247c13.836,3.153,26.216,9.273,37.654,17.467
		c9.601,6.886,17.26,15.583,24.07,25.22c5.119,7.228,8.947,15.073,11.858,23.256c6.519,18.39,8.036,37.115,4.013,56.486
		c-4.048,19.484-12.691,36.419-26.178,50.679c-7.084,7.488-15.139,14.075-24.545,19.078c-6.769,3.586-13.646,6.522-20.853,8.877
		c-2.021,0.678-3.994,1.487-6.172,0.803c-4.851-7.352-9.913-14.574-13.741-22.55c-0.435-1.78,0.911-1.726,1.975-1.802
		c9.452-0.641,18.012-3.929,26.186-8.573c7.795-4.428,14.409-10.244,20.318-16.869c6.443-7.223,10.779-15.72,14.29-24.689
		c4.541-11.612,4.292-23.598,3.489-35.763c-1.029-15.605-7.784-28.846-17.442-40.375c-11.04-13.191-25.169-21.878-42.424-25.627
		c-12.912-2.8-25.516-2.323-38.012,0.841c-11.572,2.925-21.919,8.703-30.761,16.842c-3.205,2.963-6.46,5.888-9.018,9.491
		c-0.893,1.248-1.986,2.479-3.869,1.812C375.395,1534.242,370.995,1526.885,366.597,1519.516z"/>
	<path fill-rule="evenodd" clip-rule="evenodd" fill="#DD473B" d="M379.788,1541.611c5.616-8.063,12.618-14.911,20.827-20.055
		c7.681-4.813,15.726-9.403,25.096-10.499c3.765-0.429,7.426-1.476,11.232-1.867c18.991-1.98,36.306,2.643,52.131,12.996
		c10.496,6.864,18.73,16.083,24.938,26.913c8.842,15.421,10.822,32.106,9.428,49.708c-0.828,10.381-4.702,19.432-9.178,28.292
		c-4.515,8.904-11.17,16.359-18.998,22.784c-4.042,3.288-8.336,6.126-12.756,8.823c-6.723,4.113-14.358,5.654-21.756,7.9
		c-2.075,0.651-3.773-1.052-5.697-0.282c-4.485-6.902-8.872-13.869-12.713-21.157c-0.312-3.136,2.116-2.783,3.953-3.027
		c7.818-1.036,15.537-2.122,22.724-5.936c20.329-10.766,31.702-31.748,28.796-53.952c-2.702-20.696-14.069-35.34-33.861-43.859
		c-23.346-10.055-51.448,0.917-63.629,19.289c-1.395,2.105-2.86,4.167-3.351,6.767c-0.206,1.036-0.504,2.339-2.17,1.813
		C389.796,1558.03,384.791,1549.826,379.788,1541.611z"/>
	<path fill-rule="evenodd" clip-rule="evenodd" fill="#F4C335" d="M439.816,1936.934c1.525-2.301,3.049-4.597,4.571-6.897
		c11.466,18.916,22.952,37.831,34.401,56.762c8.601,14.244,17.033,28.574,25.769,42.72c9.916,16.083,13.31,33.599,12.366,52.2
		c-0.091,2.544-1.508,4.953-0.715,7.569c-0.017,0.292-0.03,0.58-0.055,0.884c-0.871,0.563-1.387,1.339-1.62,2.36
		c-0.22,1.025,0.339,2.714-1.169,2.799c-1.742,0.098-1.967-1.654-2.369-3.005c-6.072-20.278-15.112-39.047-28.294-55.688
		c-11.721-14.792-25.674-27.055-41.694-37.115c-8.06-5.062-16.948-8.285-25.22-12.811c-1.356-0.754-2.794-1.325-3.901-2.447
		c2.477-6.006,6.647-11.042,9.647-16.761c0.413-1.704,1.253-3.125,2.586-4.27c0.176-0.304,0.355-0.608,0.537-0.922
		C429.982,1954.025,435.25,1945.691,439.816,1936.934z"/>
	<path fill-rule="evenodd" clip-rule="evenodd" fill="#DE493D" d="M394.804,1566.262c-0.12-5.839,3.658-9.848,6.997-13.782
		c10.874-12.833,25.131-19.957,41.721-19.952c18.229,0,33.794,7.027,45.116,22.264c14.42,19.409,15.513,40.212,4.495,60.733
		c-8.259,15.378-21.875,25.465-40.158,27.75c-3.543,0.434-7.347-0.125-10.633,1.893c-7.36-11.432-14.316-23.108-21.053-34.927
		c1.337-2.506,2.577-0.689,3.492,0.26c1.972,2.03,3.37,4.559,4.522,7.104c1.688,3.668,4.566,5.16,8.267,5.67
		c14.116,1.921,26.088-2.046,34.694-13.657c7.83-10.57,9.658-22.307,4.515-34.705c-5.573-13.408-16.279-20.521-30.191-21.786
		c-12.269-1.118-22.586,4.232-30.14,14.011c-3.692,4.785-6.939,9.983-6.926,16.479c0,1.514-0.445,3.185-2.691,2.881
		C402.597,1579.886,398.296,1573.305,394.804,1566.262z"/>
	<path fill-rule="evenodd" clip-rule="evenodd" fill="#DE4A3E" d="M406.831,1586.495c0.665-0.792,0.915-1.72,0.936-2.74
		c0.656-22.529,30.451-42.166,54.869-27.809c17.635,10.358,22.909,32.535,15.483,47.739c-6.283,12.866-18.451,21.709-32.713,21.709
		c-1.408,0-2.816-0.027-4.222,0c-6.324,0.152-11.519-1.166-14.349-7.916c-1.096-2.616-1.935-6.207-5.545-7.239
		C416.471,1602.329,411.652,1594.418,406.831,1586.495z"/>
	<path fill-rule="evenodd" clip-rule="evenodd" fill="#F8C73A" d="M516.208,2089.288c-1.786-2.725-0.169-5.113,0.715-7.569
		C517.122,2084.284,516.853,2086.792,516.208,2089.288z"/>
	<path fill-rule="evenodd" clip-rule="evenodd" fill="#FAC741" d="M280.835,2201.152c1.642-2.384,3.28-4.733,4.919-7.104
		c3.842-2.653,4.712-2.604,7.854,0.656c11.004,11.389,24.103,19.784,39.157,24.173c12.114,3.527,24.692,4.743,37.593,2.735
		c15.456-2.41,29.273-8.221,41.604-17.478c9.417-7.07,16.761-16.121,22.657-26.377c7.097-12.382,10.329-25.887,11.718-39.837
		c0.931-9.382-1.433-18.504-3.91-27.467c-5.797-21.059-18.509-37.163-36.298-49.306c-6.725-4.576-14.026-8.427-22.149-10.24
		c-0.822-0.185-1.658-0.37-2.469-0.614c-5.598-1.639-6.316-3.086-4.192-8.394c3.612-6.994,7.643-13.744,12.065-20.267
		c1.039,1.584,2.407,2.631,4.267,3.239c17.448,5.654,32.755,14.927,45.718,27.896c13.663,13.694,22.982,29.909,29.122,48.34
		c5.505,16.544,5.638,33.284,3.677,50.056c-2.276,19.511-10.369,36.925-21.897,52.86c-12.602,17.429-29.32,29.194-48.908,37.44
		c-16.019,6.739-32.782,9.647-49.945,8.502c-18.883-1.252-36.765-6.435-53.148-16.494c-7.273-4.477-13.747-9.79-20.104-15.313
		c-1.587-1.389-4.16-1.279-4.99-3.575C275.229,2209.816,278.217,2205.583,280.835,2201.152z"/>
	<path fill-rule="evenodd" clip-rule="evenodd" fill="#179750" d="M424.119,1963.234c-0.603,1.579-1.371,3.055-2.586,4.27
		C420.608,1964.997,422.496,1964.194,424.119,1963.234z"/>
	<path fill-rule="evenodd" clip-rule="evenodd" fill="#14AA5F" d="M248.252,2067.306c-15.356,1.227-26.684-11.922-26.439-25.682
		c0.271-15.644,10.806-26.376,26.498-26.604c12.863-0.173,25.433,10.228,25.807,26.496
		C274.438,2055.407,260.918,2069.405,248.252,2067.306z"/>
	<path fill-rule="evenodd" clip-rule="evenodd" fill="#FCC945" d="M377.318,2041.901c-0.998,3.728,0.559,5.513,4.213,6.375
		c18.496,4.395,33.078,14.731,45.365,29.062c14.849,17.326,21.892,37.577,21.219,59.84c-0.6,19.854-7.429,37.977-20.291,53.94
		c-11.794,14.607-26.607,24.243-44.025,29.644c-13.758,4.259-28.044,4.786-42.535,2.142c-15.155-2.761-28.088-9.684-40.183-18.61
		c-3.467-2.567-6.679-5.67-9.327-9.051c-2.002-2.544-4.059-0.695-6.001-1.193c1.97-5.193,5.6-9.426,8.377-14.157
		c1.202-1.975,2.407-3.935,3.606-5.914c4.572,1.422,6.096,5.996,9.116,9c9.574,9.54,20.438,16.475,33.718,19.719
		c12.518,3.065,24.911,2.666,37.195-0.422c8.107-2.046,15.494-6.072,22.158-11.135c2.979-2.246,6.055-4.412,8.603-7.368
		c19.504-22.567,25.953-47.478,14.387-75.911c-5.876-14.438-15.442-25.486-28.899-33.539c-8.05-4.828-16.734-7.21-25.649-9.268
		c-1.487-0.353-3.168-0.283-3.91-2.034c0.076-0.267,0.104-0.521,0.071-0.804C368.789,2055.444,373.051,2048.678,377.318,2041.901z"
		/>
	<path fill-rule="evenodd" clip-rule="evenodd" fill="#FCC948" d="M364.456,2063.02c10.171,0.351,19.496,3.565,28.4,8.312
		c9.097,4.851,16.967,11.227,22.838,19.631c14.99,21.422,19.61,44.364,9.824,69.487c-4.118,10.57-9.913,20.099-18.155,27.467
		c-11.362,10.124-24.746,16.728-40.395,18.345c-13.801,1.412-26.948-0.244-39.485-6.044c-11.68-5.387-21.352-13.312-28.674-23.978
		c-0.464-0.684-0.72-1.498-1.072-2.263c2.374-4.194,4.74-8.396,7.108-12.589c1.292-2.046,2.581-4.075,3.869-6.12
		c3.994-0.901,5.546,2.029,7.055,4.719c3.518,6.252,8.247,11.178,14.284,15.194c13.462,8.953,27.869,11.286,43.07,6.267
		c19.064-6.294,30.226-19.755,33.525-39.61c4.877-29.316-18.351-55.741-47.478-56.604c-2.488-0.059-6.072,1.134-6.344-3.408
		c2.179-5.203,5.907-9.513,8.446-14.509c0.61-1.546,1.487-2.945,2.542-4.221C364.025,2063.035,364.239,2063.02,364.456,2063.02z"/>
	<path fill-rule="evenodd" clip-rule="evenodd" fill="#FCCC4B" d="M352.825,2081.826c1.262,1.828,3.185,1.585,4.995,1.546
		c21.032-0.45,41.702,13.3,48.924,34.988c5.06,15.181,3.052,29.936-5.404,43.782c-11.075,18.125-34.027,27.293-54.136,22.541
		c-14.705-3.479-26.371-11.038-33.566-24.646c-1.183-2.215-3.326-3.143-4.924-4.77c4.089-6.729,8.174-13.467,12.263-20.207
		c0.651-1.059,1.443-2.078,1.191-3.468l0.291,0.137c3.188-1.487,4.449,0.275,4.998,3.027c0.811,4.135,1.446,8.259,3.28,12.187
		c7.11,15.208,24.981,21.969,39.928,14.942c15.192-7.156,21.543-25.355,14.124-40.461c-6.365-12.931-20.969-19.377-34.792-15.329
		c-2.301,0.668-4.52,1.643-6.836,2.225c-3.044,0.754-4.173-0.424-3.905-3.675C343.01,2096.584,347.967,2089.238,352.825,2081.826z"
		/>
	<path fill-rule="evenodd" clip-rule="evenodd" fill="#FFCE4E" d="M339.254,2104.647c0.514,3.126,2.347,2.42,4.338,1.536
		c9.056-4.004,18.115-4.477,27.437-0.624c15.852,6.582,23.118,26.171,16.653,40.892c-7.208,16.408-23.918,24.411-40.742,18.183
		c-12.979-4.804-19.908-15.145-21.186-28.976c-0.217-2.382-0.901-3.702-3.296-3.928c5.358-8.591,11.023-16.974,15.497-26.095
		C338.169,2105.208,338.81,2104.969,339.254,2104.647z"/>
	<path fill-rule="evenodd" clip-rule="evenodd" fill="#149E55" d="M363.813,2063.096c-0.518,1.595-1.137,3.152-2.542,4.221
		C360.677,2065.043,362.323,2064.104,363.813,2063.096z"/>
	<path fill-rule="evenodd" clip-rule="evenodd" fill="#F8C73A" d="M258.556,2239.057c0.494,2.653-0.377,4.515-3.12,5.248
		C256.192,2242.378,257.196,2240.605,258.556,2239.057z"/>
	<path fill-rule="evenodd" clip-rule="evenodd" fill="#F8C73A" d="M250.948,2251.761c0.816,1.653,0.431,2.555-1.546,2.479
		C249.92,2253.414,250.43,2252.585,250.948,2251.761z"/>
	<path fill-rule="evenodd" clip-rule="evenodd" fill="#E04B3F" d="M463.656,1588.362c-0.111,12.273-8.498,18.948-18.845,19.859
		c-9.84,0.868-20.042-9.48-20.09-19.426c-0.041-10.896,8.389-20.142,19.778-19.794
		C455.674,1569.327,463.016,1575.573,463.656,1588.362z"/>
</g>
<g>
	<rect x="720.488" y="1239.28" fill-rule="evenodd" clip-rule="evenodd" fill="none" width="6338.694" height="1099.883"/>
	<path fill="#EDEFEF" d="M1056.055,1610.866c-9.421,14.495-25.77,27.809-49.044,39.942c-23.278,12.138-53.392,18.205-90.345,18.205
		c-47.278,0-86.362-15.123-117.244-45.376c-30.886-30.249-46.328-69.376-46.328-117.38v-81.514c0-48,14.401-87.126,43.203-117.38
		c28.802-30.249,65.933-45.376,111.403-45.376c45.283,0,80.877,11.14,106.783,33.421c25.902,22.28,39.127,50.993,39.67,86.133
		l-0.543,1.63h-51.082c-1.63-23.002-10.372-41.933-26.221-56.789c-15.853-14.851-38.719-22.28-68.607-22.28
		c-30.254,0-54.615,11.314-73.091,33.938c-18.477,22.625-27.715,51.312-27.715,86.057v81.99c0,35.115,10.325,64.027,30.976,86.74
		s46.913,34.07,78.797,34.07c22.459,0,40.846-2.98,55.158-8.945c14.307-5.961,24.543-12.741,30.704-20.332v-89.733h-86.677v-42.116
		h140.204V1610.866z"/>
	<path fill="#EDEFEF" d="M1148.709,1663.307v-395.615h121.456c51.804,0,93.376,15.895,124.716,47.686
		c31.336,31.791,47.007,72.866,47.007,123.222v54.071c0,50.539-15.67,91.614-47.007,123.222
		c-31.34,31.612-72.913,47.414-124.716,47.414H1148.709z M1202.237,1309.807v311.384h67.929c36.588,0,65.436-12.032,86.541-36.104
		c21.101-24.072,31.655-54.929,31.655-92.578v-54.563c0-37.284-10.554-67.958-31.655-92.03
		c-21.104-24.072-49.953-36.108-86.541-36.108H1202.237z"/>
	<path fill="#EDEFEF" d="M1801.909,1610.866c-9.421,14.495-25.77,27.809-49.044,39.942c-23.278,12.138-53.392,18.205-90.345,18.205
		c-47.278,0-86.362-15.123-117.244-45.376c-30.886-30.249-46.328-69.376-46.328-117.38v-81.514c0-48,14.401-87.126,43.203-117.38
		c28.802-30.249,65.933-45.376,111.403-45.376c45.283,0,80.877,11.14,106.783,33.421c25.902,22.28,39.127,50.993,39.67,86.133
		l-0.543,1.63h-51.082c-1.63-23.002-10.372-41.933-26.221-56.789c-15.853-14.851-38.719-22.28-68.607-22.28
		c-30.254,0-54.615,11.314-73.091,33.938c-18.477,22.625-27.715,51.312-27.715,86.057v81.99c0,35.115,10.325,64.027,30.976,86.74
		s46.913,34.07,78.797,34.07c22.459,0,40.846-2.98,55.158-8.945c14.307-5.961,24.543-12.741,30.704-20.332v-89.733h-86.677v-42.116
		h140.204V1610.866z"/>
	<path fill="#EDEFEF" d="M2032.866,1663.307v-395.615h121.456c51.804,0,93.376,15.895,124.716,47.686
		c31.336,31.791,47.007,72.866,47.007,123.222v54.071c0,50.539-15.67,91.614-47.007,123.222
		c-31.34,31.612-72.913,47.414-124.716,47.414H2032.866z M2086.394,1309.807v311.384h67.929c36.588,0,65.436-12.032,86.541-36.104
		c21.101-24.072,31.655-54.929,31.655-92.578v-54.563c0-37.284-10.554-67.958-31.655-92.03
		c-21.104-24.072-49.953-36.108-86.541-36.108H2086.394z"/>
	<path fill="#EDEFEF" d="M2511.354,1669.013c-40.939,0-73.499-13.628-97.681-40.893c-24.183-27.26-36.273-62.63-36.273-106.104
		v-11.956c0-41.844,12.452-76.666,37.36-104.474c24.904-27.804,54.385-41.708,88.443-41.708c39.67,0,69.648,11.956,89.938,35.866
		c20.285,23.911,30.432,55.795,30.432,95.644v33.42h-190.743l-0.815,1.354c0.543,28.182,7.697,51.35,21.465,69.503
		c13.764,18.154,33.056,27.231,57.875,27.231c18.111,0,34.007-2.581,47.686-7.744c13.675-5.163,25.494-12.27,35.458-21.33
		l20.922,34.817c-10.508,10.393-24.365,19.05-41.572,25.979C2556.637,1665.548,2535.808,1669.013,2511.354,1669.013z
		 M2503.203,1405.994c-17.933,0-33.243,7.54-45.919,22.612c-12.682,15.076-20.472,33.985-23.368,56.733l0.543,1.354h135.585v-7.04
		c0-20.943-5.617-38.456-16.846-52.538C2541.964,1413.037,2525.301,1405.994,2503.203,1405.994z"/>
	<path fill="#EDEFEF" d="M2778.177,1576.63l4.619,20.65h1.63l5.163-20.65l67.657-207.317h54.614l-108.142,293.994h-40.485
		l-109.5-293.994h54.886L2778.177,1576.63z"/>
	<path fill="#EDEFEF" d="M2985.767,1663.307v-254.324h-45.92v-39.67h45.92v-37.225c0-31.336,8.194-55.565,24.59-72.683
		c16.392-17.118,39.263-25.677,68.608-25.677c6.156,0,12.363,0.501,18.612,1.495c6.25,0.998,13.178,2.403,20.786,4.211
		l-6.521,40.757c-3.261-0.722-7.201-1.358-11.82-1.902s-9.467-0.815-14.537-0.815c-15.581,0-27.171,4.666-34.779,13.993
		c-7.608,9.332-11.412,22.871-11.412,40.621v37.225h61.136v39.67h-61.136v254.324H2985.767z"/>
	<path fill="#EDEFEF" d="M3271.066,1669.013c-40.939,0-73.499-13.628-97.681-40.893c-24.183-27.26-36.273-62.63-36.273-106.104
		v-11.956c0-41.844,12.452-76.666,37.36-104.474c24.904-27.804,54.385-41.708,88.443-41.708c39.67,0,69.648,11.956,89.938,35.866
		c20.285,23.911,30.432,55.795,30.432,95.644v33.42h-190.743l-0.815,1.354c0.543,28.182,7.697,51.35,21.465,69.503
		c13.764,18.154,33.056,27.231,57.875,27.231c18.111,0,34.007-2.581,47.686-7.744c13.675-5.163,25.494-12.27,35.458-21.33
		l20.922,34.817c-10.508,10.393-24.365,19.05-41.572,25.979C3316.349,1665.548,3295.52,1669.013,3271.066,1669.013z
		 M3262.915,1405.994c-17.933,0-33.243,7.54-45.919,22.612c-12.682,15.076-20.472,33.985-23.368,56.733l0.543,1.354h135.585v-7.04
		c0-20.943-5.617-38.456-16.846-52.538C3301.676,1413.037,3285.013,1405.994,3262.915,1405.994z"/>
	<path fill="#EDEFEF" d="M3614.24,1585.053c0-11.773-4.482-21.465-13.449-29.074c-8.967-7.608-25.949-14.218-50.947-19.835
		c-35.688-7.778-62.541-18.311-80.563-31.604c-18.026-13.293-27.036-31.426-27.036-54.394c0-23.873,10.143-44.217,30.432-61.038
		c20.285-16.821,46.735-25.231,79.34-25.231c34.236,0,61.451,8.788,81.65,26.356c20.197,17.572,29.842,38.948,28.938,64.125
		l-0.543,1.63h-51.082c0-12.859-5.393-24.407-16.167-34.643c-10.779-10.232-25.044-15.352-42.795-15.352
		c-19.02,0-33.149,4.169-42.387,12.499c-9.238,8.334-13.857,18.387-13.857,30.16c0,11.594,4.076,20.744,12.227,27.443
		c8.151,6.704,24.726,12.682,49.724,17.933c37.131,7.973,64.758,18.795,82.874,32.47c18.111,13.679,27.172,32.02,27.172,55.022
		c0,26.084-10.555,47.189-31.656,63.309c-21.104,16.125-48.683,24.183-82.736,24.183c-37.497,0-67.024-9.51-88.579-28.53
		c-21.559-19.02-31.791-41.208-30.704-66.57l0.543-1.63h51.082c0.904,18.926,7.969,32.763,21.194,41.504
		c13.221,8.742,28.708,13.11,46.463,13.11c19.02,0,33.917-3.846,44.697-11.548C3608.85,1607.652,3614.24,1597.552,3614.24,1585.053z
		"/>
	<path fill="#EDEFEF" d="M3804.984,1298.395v70.917h55.701v39.67h-55.701v178.516c0,13.768,2.852,23.461,8.559,29.073
		c5.705,5.617,13.268,8.423,22.688,8.423c3.078,0,6.475-0.361,10.189-1.087c3.711-0.722,7.018-1.63,9.918-2.717l7.064,36.682
		c-3.986,3.26-9.828,5.931-17.525,8.015c-7.701,2.081-15.445,3.125-23.232,3.125c-21.736,0-39.037-6.563-51.896-19.699
		c-12.865-13.131-19.293-33.735-19.293-61.815v-178.516h-46.734v-39.67h46.734v-70.917H3804.984z"/>
	<path fill="#EDEFEF" d="M4314.719,1663.307h-256.498v-36.919l129.607-143.771c23.186-25.902,38.898-46.463,47.143-61.679
		c8.24-15.216,12.363-30.793,12.363-46.735c0-19.742-5.754-36.363-17.254-49.859c-11.506-13.492-26.764-20.243-45.783-20.243
		c-27.355,0-47.508,7.022-60.457,21.058c-12.953,14.04-19.428,33.739-19.428,59.098h-51.354l-0.543-1.63
		c-0.91-34.054,10.414-62.673,33.963-85.862c23.547-23.185,56.152-34.779,97.818-34.779c35.5,0,63.805,10.372,84.91,31.111
		c21.1,20.744,31.654,47.142,31.654,79.205c0,21.559-6.385,43.16-19.156,64.804c-12.77,21.648-30.66,44.879-53.662,69.694
		l-104.066,113.038l0.543,1.354h190.199V1663.307z"/>
	<path fill="#EDEFEF" d="M4622.027,1512.505c0,50.539-11.188,89.258-33.557,116.158c-22.375,26.9-53.031,40.35-91.975,40.35
		c-38.949,0-69.742-13.492-92.383-40.485c-22.646-26.989-33.965-65.662-33.965-116.022v-93.741
		c0-50.356,11.275-89.075,33.828-116.158c22.553-27.078,53.209-40.621,91.975-40.621c38.945,0,69.695,13.543,92.248,40.621
		c22.553,27.083,33.828,65.802,33.828,116.158V1512.505z M4568.5,1407.267c0-34.206-6.207-59.951-18.613-77.239
		c-12.41-17.283-30.389-25.927-53.936-25.927c-23.549,0-41.482,8.644-53.799,25.927c-12.32,17.288-18.477,43.033-18.477,77.239
		v115.924c0,34.206,6.25,60.041,18.748,77.506c12.5,17.466,30.521,26.199,54.072,26.199c23.545,0,41.436-8.687,53.662-26.063
		c12.229-17.373,18.342-43.253,18.342-77.642V1407.267z"/>
	<path fill="#EDEFEF" d="M4838.039,1663.307h-53.527V1319.86l-80.971,1.087v-38.583l134.498-14.672V1663.307z"/>
	<path fill="#EDEFEF" d="M5149.695,1261.985c13.586,0,27.035,1.541,40.35,4.619c13.314,3.082,24.318,6.976,33.014,11.684
		l-11.412,41.029c-8.877-4.526-18.162-8.194-27.852-11.004c-9.691-2.806-21.057-4.211-34.1-4.211
		c-28.258,0-51.039,11.323-68.336,33.964c-17.301,22.646-25.949,52.169-25.949,88.579v6.25
		c11.592-10.143,24.863-18.069,39.807-23.775c14.943-5.706,31.018-8.559,48.229-8.559c35.324,0,63.488,12.227,84.504,36.681
		c21.012,24.454,31.52,55.43,31.52,92.926c0,40.939-11.188,74.313-33.557,100.126c-22.375,25.813-52.217,38.719-89.531,38.719
		c-38.766,0-70.828-14.036-96.186-42.116c-25.363-28.076-38.041-67.657-38.041-118.739v-75.537
		c0-50.717,14.129-91.839,42.389-123.358C5072.801,1277.745,5107.852,1261.985,5149.695,1261.985z M5131.49,1440.501
		c-18.299,0-33.875,3.71-46.734,11.123c-12.863,7.417-22.646,17.275-29.346,29.574v32.016c0,36.359,7.697,64.392,23.096,84.108
		c15.395,19.716,34.686,29.574,57.875,29.574c21.916,0,38.992-9.268,51.219-27.808c12.227-18.541,18.34-41.56,18.34-69.054
		c0-26.042-6.566-47.478-19.699-64.298C5173.105,1448.916,5154.857,1440.501,5131.49,1440.501z"/>
	<path fill="#EDEFEF" d="M904.438,2118.318h108.414v48.365H904.438V2291.4h-53.527v-124.717H741.682v-48.365h109.229v-114.935
		h53.527V2118.318z"/>
	<path fill="#EDEFEF" d="M1522.587,2331.07h-53.528v-174.712h-192.102v174.712h-53.527v-395.615h53.527v178.788h192.102v-178.788
		h53.528V2331.07z"/>
	<path fill="#EDEFEF" d="M1791.041,2331.07c-1.813-8.873-3.218-16.71-4.212-23.503c-0.998-6.793-1.587-13.629-1.766-20.515
		c-9.964,14.129-22.959,25.948-38.991,35.459c-16.031,9.51-33.285,14.265-51.762,14.265c-30.614,0-53.935-7.833-69.966-23.503
		c-16.031-15.666-24.046-37.268-24.046-64.804c0-28.076,11.365-50.038,34.1-65.891c22.73-15.849,53.57-23.775,92.519-23.775h58.146
		v-29.073c0-17.207-5.256-30.84-15.759-40.893c-10.508-10.053-25.363-15.08-44.561-15.08c-17.211,0-31.205,4.394-41.98,13.178
		c-10.779,8.788-16.167,19.338-16.167,31.655h-51.082l-0.543-1.63c-1.087-21.372,9.009-40.936,30.296-58.69
		c21.283-17.75,48.772-26.628,82.465-26.628c33.328,0,60.138,8.47,80.427,25.405c20.285,16.939,30.432,41.347,30.432,73.227v141.563
		c0,10.508,0.543,20.65,1.63,30.432c1.087,9.782,3.078,19.385,5.978,28.802H1791.041z M1702.19,2291.672
		c19.381,0,36.86-4.968,52.441-14.902c15.577-9.934,25.719-21.313,30.432-34.142v-47.686h-60.048
		c-21.559,0-38.813,5.421-51.762,16.256c-12.953,10.839-19.428,23.576-19.428,38.206c0,13.009,4.076,23.304,12.228,30.891
		C1674.204,2287.881,1686.249,2291.672,1702.19,2291.672z"/>
	<path fill="#EDEFEF" d="M2035.855,2294.661c17.75,0,33.374-5.478,46.871-16.439c13.492-10.957,20.243-24.407,20.243-40.349h48.093
		l0.543,1.63c0.904,25.362-10.372,47.915-33.828,67.656c-23.461,19.746-50.768,29.617-81.922,29.617
		c-42.752,0-75.447-13.946-98.089-41.844c-22.646-27.894-33.964-62.944-33.964-105.153v-11.412c0-41.844,11.365-76.759,34.1-104.746
		c22.73-27.987,55.383-41.98,97.953-41.98c34.414,0,62.537,10.147,84.367,30.432c21.826,20.289,32.376,45.198,31.655,74.721
		l-0.543,1.63h-48.365c0-17.933-6.343-33.191-19.02-45.784c-12.681-12.588-28.712-18.884-48.093-18.884
		c-28.08,0-48.14,10.087-60.185,30.258c-12.049,20.175-18.069,44.914-18.069,74.225v11.395c0,30.033,5.978,55.047,17.933,75.04
		C1987.49,2284.667,2007.597,2294.661,2035.855,2294.661z"/>
	<path fill="#EDEFEF" d="M2300.232,2194.942h-34.779v136.128h-53.527v-423.874h53.527v245.629h34.236l80.428-115.75h64.124
		l-100.534,133.454l114.935,160.541h-63.038L2300.232,2194.942z"/>
	<path fill="#EDEFEF" d="M2575.479,1935.455l126.075,321.438h1.63l126.075-321.438h68.472v395.615h-53.527v-156.507l5.434-160.854
		l-1.358-0.271L2720.03,2331.07h-35.595l-127.705-316.818l-1.359,0.272l5.163,160.039v156.507h-53.527v-395.615H2575.479z"/>
	<path fill="#EDEFEF" d="M3075.704,2222.113l9.51,36.953h1.63l72.276-221.99h59.505l-123.63,339.099
		c-7.43,19.742-18.069,36.953-31.926,51.626c-13.857,14.672-32.563,22.009-56.109,22.009c-4.348,0-9.875-0.501-16.575-1.495
		c-6.704-0.997-11.866-1.948-15.488-2.853l5.435-42.116c-1.087-0.182,2.127,0,9.646,0.544c7.515,0.543,12.27,0.815,14.265,0.815
		c11.412,0,20.739-5.073,27.987-15.216c7.243-10.147,13.314-21.377,18.205-33.693l12.771-30.703l-109.229-288.017h59.777
		L3075.704,2222.113z"/>
	<path fill="#EDEFEF" d="M3555.278,2204.18l0.543,1.63c0.722,37.136-12.32,68.247-39.127,93.333
		c-26.811,25.092-62.222,37.633-106.24,37.633c-44.744,0-81.2-15.849-109.365-47.55c-28.169-31.697-42.252-71.911-42.252-120.641
		v-70.374c0-48.726,14.083-88.986,42.252-120.777c28.165-31.791,64.621-47.686,109.365-47.686c44.739,0,80.333,11.913,106.783,35.73
		c26.445,23.821,39.305,55.387,38.583,94.692l-0.543,1.63h-51.354c0-27.715-8.151-49.63-24.454-65.754
		c-16.303-16.121-39.31-24.183-69.015-24.183c-29.889,0-53.71,12.036-71.461,36.108c-17.755,24.072-26.628,53.936-26.628,89.589
		v70.858c0,36.019,8.873,66.061,26.628,90.133c17.75,24.072,41.572,36.108,71.461,36.108c29.706,0,52.712-8.016,69.015-24.047
		s24.454-38.176,24.454-66.434H3555.278z"/>
	<path fill="#EDEFEF" d="M3675.92,1961.811h-53.529v-54.614h53.529V1961.811z M3675.92,2331.07h-53.529v-293.994h53.529V2331.07z"/>
	<path fill="#EDEFEF" d="M3828.895,1966.159v70.917h55.701v39.67h-55.701v178.516c0,13.769,2.852,23.461,8.559,29.074
		c5.705,5.616,13.268,8.423,22.688,8.423c3.078,0,6.475-0.361,10.189-1.087c3.711-0.722,7.018-1.63,9.918-2.717l7.064,36.681
		c-3.986,3.261-9.828,5.932-17.525,8.016c-7.701,2.08-15.445,3.125-23.232,3.125c-21.736,0-39.037-6.563-51.896-19.699
		c-12.865-13.132-19.293-33.735-19.293-61.815v-178.516h-46.734v-39.67h46.734v-70.917H3828.895z"/>
	<path fill="#EDEFEF" d="M4040.559,2222.113l9.51,36.953h1.631l72.275-221.99h59.506l-123.631,339.099
		c-7.43,19.742-18.068,36.953-31.926,51.626c-13.857,14.672-32.563,22.009-56.109,22.009c-4.348,0-9.875-0.501-16.574-1.495
		c-6.703-0.997-11.865-1.948-15.488-2.853l5.436-42.116c-1.088-0.182,2.127,0,9.645,0.544c7.516,0.543,12.27,0.815,14.266,0.815
		c11.412,0,20.74-5.073,27.986-15.216c7.242-10.147,13.314-21.377,18.205-33.693l12.771-30.703l-109.23-288.017h59.777
		L4040.559,2222.113z"/>
	<path fill="#EDEFEF" d="M4678,2331.07h-53.527v-174.712h-192.102v174.712h-53.529v-395.615h53.529v178.788h192.102v-178.788H4678
		V2331.07z"/>
	<path fill="#EDEFEF" d="M4946.453,2331.07c-1.813-8.873-3.219-16.71-4.213-23.503c-0.996-6.793-1.588-13.629-1.766-20.515
		c-9.965,14.129-22.959,25.948-38.99,35.459c-16.031,9.51-33.285,14.265-51.762,14.265c-30.615,0-53.936-7.833-69.967-23.503
		c-16.031-15.666-24.047-37.268-24.047-64.804c0-28.076,11.365-50.038,34.1-65.891c22.73-15.849,53.57-23.775,92.52-23.775h58.146
		v-29.073c0-17.207-5.256-30.84-15.76-40.893c-10.508-10.053-25.361-15.08-44.561-15.08c-17.211,0-31.205,4.394-41.98,13.178
		c-10.779,8.788-16.166,19.338-16.166,31.655h-51.082l-0.543-1.63c-1.088-21.372,9.008-40.936,30.295-58.69
		c21.283-17.75,48.773-26.628,82.465-26.628c33.328,0,60.139,8.47,80.428,25.405c20.285,16.939,30.432,41.347,30.432,73.227v141.563
		c0,10.508,0.543,20.65,1.631,30.432c1.086,9.782,3.078,19.385,5.979,28.802H4946.453z M4857.602,2291.672
		c19.381,0,36.859-4.968,52.441-14.902c15.576-9.934,25.719-21.313,30.432-34.142v-47.686h-60.049
		c-21.559,0-38.813,5.421-51.762,16.256c-12.953,10.839-19.428,23.576-19.428,38.206c0,13.009,4.076,23.304,12.229,30.891
		C4829.615,2287.881,4841.66,2291.672,4857.602,2291.672z"/>
	<path fill="#EDEFEF" d="M5191.268,2294.661c17.75,0,33.373-5.478,46.871-16.439c13.492-10.957,20.242-24.407,20.242-40.349h48.094
		l0.543,1.63c0.904,25.362-10.373,47.915-33.828,67.656c-23.461,19.746-50.77,29.617-81.922,29.617
		c-42.754,0-75.447-13.946-98.09-41.844c-22.645-27.894-33.963-62.944-33.963-105.153v-11.412c0-41.844,11.365-76.759,34.1-104.746
		c22.73-27.987,55.383-41.98,97.953-41.98c34.414,0,62.535,10.147,84.367,30.432c21.826,20.289,32.375,45.198,31.654,74.721
		l-0.543,1.63h-48.365c0-17.933-6.344-33.191-19.02-45.784c-12.682-12.588-28.713-18.884-48.094-18.884
		c-28.08,0-48.141,10.087-60.186,30.258c-12.049,20.175-18.068,44.914-18.068,74.225v11.395c0,30.033,5.977,55.047,17.934,75.04
		C5142.902,2284.667,5163.01,2294.661,5191.268,2294.661z"/>
	<path fill="#EDEFEF" d="M5455.645,2194.942h-34.779v136.128h-53.527v-423.874h53.527v245.629h34.236l80.426-115.75h64.125
		l-100.533,133.454l114.934,160.541h-63.037L5455.645,2194.942z"/>
	<path fill="#EDEFEF" d="M5833.055,2331.07c-1.813-8.873-3.219-16.71-4.211-23.503c-0.998-6.793-1.588-13.629-1.766-20.515
		c-9.965,14.129-22.961,25.948-38.992,35.459c-16.031,9.51-33.285,14.265-51.762,14.265c-30.613,0-53.934-7.833-69.965-23.503
		c-16.031-15.666-24.047-37.268-24.047-64.804c0-28.076,11.365-50.038,34.1-65.891c22.73-15.849,53.57-23.775,92.518-23.775h58.148
		v-29.073c0-17.207-5.256-30.84-15.76-40.893c-10.508-10.053-25.363-15.08-44.561-15.08c-17.213,0-31.205,4.394-41.98,13.178
		c-10.779,8.788-16.168,19.338-16.168,31.655h-51.082l-0.543-1.63c-1.086-21.372,9.01-40.936,30.297-58.69
		c21.281-17.75,48.771-26.628,82.465-26.628c33.326,0,60.137,8.47,80.428,25.405c20.285,16.939,30.432,41.347,30.432,73.227v141.563
		c0,10.508,0.543,20.65,1.629,30.432c1.088,9.782,3.078,19.385,5.979,28.802H5833.055z M5744.205,2291.672
		c19.381,0,36.859-4.968,52.439-14.902c15.578-9.934,25.721-21.313,30.434-34.142v-47.686h-60.049
		c-21.559,0-38.813,5.421-51.762,16.256c-12.953,10.839-19.428,23.576-19.428,38.206c0,13.009,4.076,23.304,12.227,30.891
		C5716.219,2287.881,5728.262,2291.672,5744.205,2291.672z"/>
	<path fill="#EDEFEF" d="M6028.961,1966.159v70.917h55.701v39.67h-55.701v178.516c0,13.769,2.854,23.461,8.559,29.074
		c5.707,5.616,13.268,8.423,22.689,8.423c3.078,0,6.475-0.361,10.189-1.087c3.709-0.722,7.018-1.63,9.916-2.717l7.064,36.681
		c-3.986,3.261-9.828,5.932-17.525,8.016c-7.701,2.08-15.445,3.125-23.23,3.125c-21.738,0-39.039-6.563-51.898-19.699
		c-12.863-13.132-19.291-33.735-19.291-61.815v-178.516h-46.734v-39.67h46.734v-70.917H6028.961z"/>
	<path fill="#EDEFEF" d="M6138.189,2181.356c0-43.474,11.773-79.293,35.322-107.463c23.547-28.165,55.52-42.251,95.916-42.251
		c40.758,0,72.955,14.04,96.594,42.116c23.639,28.08,35.459,63.946,35.459,107.599v5.978c0,43.839-11.777,79.706-35.322,107.599
		c-23.551,27.897-55.613,41.844-96.188,41.844c-40.578,0-72.684-13.993-96.322-41.979c-23.639-27.987-35.459-63.807-35.459-107.463
		V2181.356z M6191.717,2187.193c0,31.12,6.564,56.814,19.699,77.073c13.133,20.265,32.648,30.395,58.555,30.395
		c25.541,0,44.922-10.13,58.146-30.395c13.221-20.259,19.836-45.953,19.836-77.073v-5.969c0-30.755-6.658-56.355-19.971-76.802
		c-13.314-20.442-32.836-30.666-58.555-30.666c-25.541,0-44.879,10.223-58.012,30.666c-13.135,20.446-19.699,46.047-19.699,76.802
		V2187.193z"/>
	<path fill="#EDEFEF" d="M6514.785,2037.076l3.805,43.746c9.781-15.577,22.051-27.668,36.816-36.274
		c14.762-8.601,31.563-12.906,50.404-12.906c31.697,0,56.244,9.285,73.633,27.851c17.391,18.57,26.086,47.236,26.086,85.998v185.581
		h-53.527v-184.494c0-25.902-5.121-44.29-15.354-55.158c-10.234-10.869-25.859-16.303-46.869-16.303
		c-15.398,0-29.031,3.715-40.895,11.141c-11.865,7.43-21.328,17.572-28.393,30.432v214.382h-53.527v-293.994H6514.785z"/>
</g>
<g>
</g>
<g>
</g>
<g>
</g>
<g>
</g>
<g>
</g>
<g>
</g>
</svg>
